<?xml version="1.0" encoding="UTF-8"?>
<svg version="1.1" xmlns="http://www.w3.org/2000/svg" width="2993" height="2816">
<path d="M0 0 C987.69 0 1975.38 0 2993 0 C2993 929.28 2993 1858.56 2993 2816 C2005.31 2816 1017.62 2816 0 2816 C0 1886.72 0 957.44 0 0 Z " fill="#000000" transform="translate(0,0)"/>
<path d="M0 0 C3.93832137 0.01913199 7.87665464 0.02054527 11.81501532 0.02407622 C19.22677711 0.03329201 26.63840148 0.05775914 34.05010355 0.08812469 C42.50759976 0.12200083 50.96510357 0.13823697 59.42265105 0.153211 C76.77781182 0.18432199 94.13283995 0.23687163 111.4878974 0.30418181 C111.4672724 1.25293181 111.4466474 2.20168181 111.4253974 3.17918181 C111.26237914 6.21084464 111.26237914 6.21084464 112.4878974 8.30418181 C111.75866505 8.30749196 111.0294327 8.31080211 110.2781024 8.31421256 C92.48115535 8.39566221 74.68429275 8.48782531 56.88746214 8.5917089 C48.28082166 8.64169294 39.67419003 8.68813668 31.06748724 8.72605681 C23.56023507 8.75914209 16.05305459 8.79906275 8.54588187 8.84697187 C4.57603521 8.87207367 0.6062351 8.89390173 -3.36366892 8.90752578 C-7.11145861 8.92049605 -10.85908727 8.94270607 -14.6067872 8.97156501 C-16.61509045 8.98475044 -18.6234488 8.98853309 -20.63179255 8.99188018 C-29.07820863 9.06848485 -37.18096405 9.94456549 -45.5121026 11.30418181 C-47.0596092 11.52252941 -48.60763164 11.73733525 -50.15663385 11.94480681 C-69.17448391 14.6690035 -88.79121415 18.72756985 -106.59413385 26.09715056 C-108.76989456 26.99716403 -110.95670945 27.87054218 -113.14882135 28.72996306 C-131.89834343 36.13673121 -149.5614853 45.41635256 -166.5121026 56.30418181 C-167.56268854 56.968049 -168.61327448 57.63191619 -169.69569635 58.31590056 C-189.61197205 71.20608171 -207.39269299 86.96781246 -224.5121026 103.30418181 C-225.37964167 104.12918181 -226.24718073 104.95418181 -227.14100885 105.80418181 C-231.90631936 110.44517987 -236.12380689 115.38131217 -240.2777276 120.57371306 C-242.35907967 123.11718351 -244.52411576 125.52375435 -246.7621026 127.92918181 C-259.62386805 142.14598645 -270.15508743 158.22642053 -280.5121026 174.30418181 C-281.10636042 175.22408904 -281.70061823 176.14399627 -282.31288385 177.09177947 C-308.50360262 217.96674152 -327.00703556 262.77915771 -340.5121026 309.30418181 C-342.8221026 309.30418181 -345.1321026 309.30418181 -347.5121026 309.30418181 C-346.07325254 300.37042621 -343.34239681 291.87299495 -340.5121026 283.30418181 C-340.24687799 282.48852752 -339.98165339 281.67287322 -339.70839167 280.83250213 C-324.89008974 235.52104709 -303.56654011 190.94519951 -275.5121026 152.30418181 C-274.72053766 151.20034148 -274.72053766 151.20034148 -273.91298151 150.07420135 C-259.23618413 129.62653293 -243.17786875 110.94364359 -225.47203302 93.08988738 C-224.47510076 92.08426216 -223.4795423 91.07727269 -222.48552179 90.06876922 C-215.84380399 83.3417765 -208.91620115 77.18423148 -201.5121026 71.30418181 C-200.33818574 70.32771926 -199.1670995 69.34783116 -198.00038385 68.36277556 C-181.59001001 54.72026263 -163.44269932 43.11822522 -144.5121026 33.30418181 C-143.8324444 32.94920623 -143.1527862 32.59423064 -142.45253229 32.22849822 C-128.25472434 24.85120585 -113.72604913 18.30375945 -98.5121026 13.30418181 C-97.89351374 13.1008322 -97.27492487 12.8974826 -96.63759089 12.68797088 C-65.0821548 2.47487594 -32.96137399 -0.18804987 0 0 Z " fill="#F16A44" transform="translate(354.51210260391235,1649.6958181858063)"/>
<path d="M0 0 C1.27845807 -0.00657338 1.27845807 -0.00657338 2.58274359 -0.01327956 C5.45689287 -0.02669997 8.33101146 -0.03285431 11.20518494 -0.03897095 C13.26028584 -0.04687094 15.31538535 -0.05513982 17.3704834 -0.06375122 C24.14862229 -0.09003803 30.92676747 -0.10531035 37.7049408 -0.11953735 C40.04629965 -0.12489902 42.38765847 -0.13027653 44.72901726 -0.13566971 C54.49205649 -0.15733029 64.25509406 -0.17605365 74.01815128 -0.1872921 C87.94619854 -0.20343338 101.87396238 -0.23633241 115.80190283 -0.29369295 C125.62148578 -0.33272712 135.44099412 -0.35196532 145.26065248 -0.35721266 C151.10636254 -0.3608279 156.95177088 -0.37242823 162.79739571 -0.4053154 C195.67013854 -0.58115259 227.09172019 0.77433632 258.85728455 10.15390015 C259.90271423 10.4581189 260.94814392 10.76233765 262.0252533 11.07577515 C288.14570903 19.29020812 315.37561248 31.49070373 337.85728455 47.15390015 C338.81127136 47.81108032 338.81127136 47.81108032 339.78453064 48.48153687 C348.38236859 54.41222654 356.84508432 60.44304454 364.85728455 67.15390015 C365.35679626 67.56994507 365.85630798 67.98598999 366.37095642 68.41464233 C370.22701113 71.6295643 374.05224287 74.87879834 377.85728455 78.15390015 C378.67841736 78.8603064 379.49955017 79.56671265 380.3455658 80.29452515 C385.77198258 85.07341993 390.92128045 90.11753675 396.04478455 95.21640015 C396.71034363 95.87728638 397.37590271 96.53817261 398.06163025 97.21908569 C402.5295579 101.70145648 406.72939016 106.35875877 410.85728455 111.15390015 C411.79467473 112.21374434 412.733395 113.27241421 413.6736908 114.3296814 C422.02454761 123.82278012 429.47914895 133.8951074 436.85728455 144.15390015 C437.52372986 145.0665564 438.19017517 145.97921265 438.8768158 146.91952515 C449.14245431 161.20649651 457.98186496 176.50625646 466.54136658 191.85360718 C467.69894503 193.87711444 468.90702888 195.84488425 470.1658783 197.8062439 C475.43139712 206.37727956 475.6460154 213.40118054 474.85728455 223.15390015 C472.52850657 220.23612335 470.85283878 217.32115471 469.24790955 213.9546814 C468.74847839 212.922948 468.24904724 211.8912146 467.73448181 210.82821655 C466.92901917 209.16411743 466.92901917 209.16411743 466.10728455 207.46640015 C455.80027159 186.56026674 443.60675556 166.97107143 429.85728455 148.15390015 C429.42722107 147.56334839 428.99715759 146.97279663 428.55406189 146.36434937 C426.03722012 142.92248788 423.45850892 139.53223449 420.85728455 136.15390015 C420.03551142 135.06287371 419.21390436 133.97172218 418.3924408 132.88046265 C411.65598868 124.02655297 404.22267666 115.98079266 396.5433197 107.9414978 C394.27775001 105.53945591 392.09914795 103.07188457 389.91978455 100.59140015 C386.80372794 97.10396994 383.5626386 93.98374798 379.9861908 90.97421265 C377.55819216 88.89816244 375.24952818 86.71457215 372.91978455 84.52890015 C366.26347304 78.46262179 359.13674169 73.05714017 351.91490173 67.68515015 C350.63341772 66.73148763 349.35487314 65.77384622 348.08091736 64.81015015 C323.35471148 46.11579485 294.4386669 31.36239348 264.85728455 22.15390015 C263.40492123 21.68290702 261.95308724 21.21027821 260.5018158 20.7359314 C225.85263932 9.55530852 191.17531107 8.41343418 155.06978559 8.54379606 C149.31464413 8.55835466 143.5595901 8.5417474 137.80445862 8.52807617 C125.74208171 8.50387073 113.67986428 8.50930037 101.61747742 8.5218811 C83.34804128 8.54067709 65.07863133 8.53566358 46.8092171 8.50184691 C39.97885583 8.49033966 33.1487446 8.49475582 26.31839728 8.51186728 C22.0998529 8.51973161 17.88138245 8.51553756 13.66283989 8.50815773 C11.70277482 8.50734425 9.74269996 8.51173763 7.78265953 8.52160072 C5.11822112 8.53436797 2.45442858 8.52899719 -0.21000671 8.51898193 C-0.99283291 8.52724011 -1.77565912 8.53549828 -2.58220732 8.54400671 C-4.73314857 8.52469444 -4.73314857 8.52469444 -8.14271545 8.15390015 C-10.14271545 5.15390015 -10.14271545 5.15390015 -10.14271545 1.15390015 C-6.95448611 -0.44021452 -3.50217185 0.00216732 0 0 Z " fill="#A085ED" transform="translate(2513.1427154541016,1649.8460998535156)"/>
<path d="M0 0 C1.98 0 3.96 0 6 0 C7.58281795 5.23375181 8.81589912 10.50797698 10.00415039 15.84423828 C12.63946754 27.65701504 15.6480413 39.24936439 19.30175781 50.78613281 C19.96279188 52.88202685 20.60590556 54.98241605 21.2421875 57.0859375 C22.45302036 61.07110106 23.71127436 65.0393664 25 69 C25.23235352 69.71462402 25.46470703 70.42924805 25.70410156 71.16552734 C44.2919945 127.6516605 72.97865631 180.3237768 111 226 C111.76441406 226.95132812 112.52882813 227.90265625 113.31640625 228.8828125 C120.37634628 237.52569262 128.1959505 245.41241981 136.0625 253.3125 C136.61694794 253.87212433 137.17139587 254.43174866 137.74264526 255.0083313 C144.83049738 262.14824515 152.10839439 268.7414633 160 275 C161.79466338 276.50343779 163.58892984 278.0073495 165.3828125 279.51171875 C171.28820683 284.33798129 177.51339193 288.61551733 183.875 292.8125 C184.45926758 293.19985321 185.04353516 293.58720642 185.64550781 293.98629761 C216.57995276 314.46012068 248.82584838 329.40545785 285 338 C286.27746094 338.31710937 287.55492187 338.63421875 288.87109375 338.9609375 C305.02116559 342.87728145 321.08757066 344.11174861 337.6640625 344.24609375 C339.03218328 344.26163991 340.40029664 344.27785247 341.7684021 344.29469299 C347.51853102 344.36470544 353.26871162 344.42602333 359.01904297 344.47680664 C362.56023348 344.50852817 366.10120771 344.54974266 369.64222336 344.59700203 C371.63751786 344.62077745 373.63293154 344.63375716 375.62832642 344.64659119 C376.83072968 344.66323318 378.03313293 344.67987518 379.27197266 344.69702148 C380.33276031 344.70732895 381.39354797 344.71763641 382.48648071 344.72825623 C385 345 385 345 387 347 C386.8125 349.5 386.8125 349.5 386 352 C382.74254273 354.17163818 381.77339804 354.26163555 377.99829102 354.30639648 C376.97226776 354.32215729 375.94624451 354.33791809 374.88912964 354.35415649 C373.77200592 354.35974579 372.6548822 354.36533508 371.50390625 354.37109375 C370.33973175 354.38216156 369.17555725 354.39322937 367.97610474 354.40463257 C364.17143896 354.4317806 360.36725875 354.43788658 356.5625 354.4375 C355.27179596 354.43889984 353.98109192 354.44029968 352.65127563 354.44174194 C331.37187241 354.42270775 310.8689009 353.18026578 290 349 C288.99984863 348.80245117 287.99969727 348.60490234 286.96923828 348.40136719 C281.21727035 347.21722872 275.61053755 345.72858476 270 344 C269.08460449 343.72317383 268.16920898 343.44634766 267.22607422 343.16113281 C207.1240445 324.74935024 148.17884466 286.42212616 109.05078125 236.609375 C106.87500067 233.84095323 104.60055817 231.17617789 102.3125 228.5 C85.96194683 208.86417339 71.70899638 187.42907599 59.22314453 165.16113281 C58.09796752 163.1730955 56.94527441 161.20531612 55.77734375 159.2421875 C39.89377883 132.291202 27.74759404 101.82595507 18.0625 72.125 C17.28692819 69.84390645 16.45158568 67.58288532 15.58203125 65.3359375 C13.63928941 60.18858515 12.16259617 54.92208787 10.6875 49.625 C10.3869873 48.54661865 10.08647461 47.4682373 9.77685547 46.35717773 C7.56382684 38.29642737 5.52919567 30.20154282 3.625 22.0625 C3.37451904 21.00434082 3.12403809 19.94618164 2.8659668 18.85595703 C1.43181378 12.58159995 0.46047254 6.4208362 0 0 Z " fill="#9D83E9" transform="translate(0,863)"/>
<path d="M0 0 C5.56122132 0.02534826 11.12245541 0.02738156 16.6837256 0.03210163 C27.16957612 0.04443474 37.65525582 0.07712265 48.1410318 0.11749959 C60.09787535 0.16252185 72.05472793 0.18428019 84.01163542 0.20428133 C108.56605628 0.24586615 133.12032653 0.31602597 157.6746161 0.40557575 C157.7983661 1.35432575 157.9221161 2.30307575 158.0496161 3.28057575 C158.39148787 6.49224766 158.39148787 6.49224766 160.6746161 8.40557575 C159.67060163 8.40704231 158.66658717 8.40850887 157.63214803 8.41001987 C133.0703112 8.44680502 108.50860873 8.50650029 83.94688344 8.58947849 C72.06844667 8.62909128 60.19007445 8.66157318 48.31157899 8.67657185 C37.9442359 8.68968128 27.57703591 8.71687893 17.20977348 8.76018882 C11.73313136 8.78259717 6.25666434 8.79849905 0.77997231 8.7974596 C-27.69977081 8.79812295 -54.82101035 9.16995411 -82.3253839 17.40557575 C-84.19392537 17.93087663 -86.06348594 18.45258981 -87.9347589 18.96807575 C-88.79198546 19.20784138 -89.64921203 19.447607 -90.53241515 19.69463825 C-92.24222474 20.17264954 -93.95319058 20.64654229 -95.66522765 21.11651325 C-101.73547099 22.82463014 -107.5148705 24.96175627 -113.3253839 27.40557575 C-114.35792296 27.83072468 -114.35792296 27.83072468 -115.4113214 28.26446247 C-135.91214295 36.78461198 -155.18495391 47.63992387 -173.3253839 60.40557575 C-173.97217101 60.8556197 -174.61895812 61.30566364 -175.28534484 61.76934528 C-195.74553226 76.0118567 -214.50921306 92.40165711 -232.1210382 110.01592731 C-233.88362913 111.77632628 -235.65409429 113.52853957 -237.42499328 115.28057575 C-243.46206973 121.28847535 -249.16412292 127.3576526 -254.44452453 134.05108356 C-256.30377965 136.37853118 -258.25128994 138.58434658 -260.2628839 140.78057575 C-265.29177705 146.39353326 -269.82215455 152.37062513 -274.3253839 158.40557575 C-274.82199523 159.06702595 -275.31860656 159.72847614 -275.83026671 160.40997028 C-286.7745113 175.04439841 -296.57754226 190.35899566 -305.3253839 206.40557575 C-305.6553839 206.40557575 -305.9853839 206.40557575 -306.3253839 206.40557575 C-307.88646452 193.89765823 -304.28614643 187.31987902 -297.3253839 177.40557575 C-296.59448546 176.31373981 -295.86358703 175.22190388 -295.11054015 174.096982 C-292.89880884 170.82937896 -290.62642193 167.61039273 -288.3253839 164.40557575 C-287.91062804 163.8234029 -287.49587218 163.24123005 -287.06854796 162.6414156 C-280.32390639 153.19434991 -273.17208513 144.13555049 -265.78436828 135.18487263 C-264.51773357 133.6401548 -263.27125534 132.07895137 -262.0285089 130.51495075 C-252.64250684 118.72951959 -242.00590297 108.01029571 -231.3878839 97.34307575 C-230.70274718 96.65326618 -230.01761046 95.96345661 -229.31171203 95.25274372 C-224.81229671 90.76751181 -220.14386651 86.543948 -215.3253839 82.40557575 C-214.24256673 81.45595032 -213.16049192 80.5054775 -212.07929015 79.55401325 C-191.90453002 61.95094628 -170.0537841 46.67991539 -146.63739562 33.68926716 C-145.11151863 32.842059 -143.5895897 31.98769567 -142.07196593 31.1257906 C-124.01726913 20.89361647 -104.81573767 13.72463469 -84.8878839 8.03057575 C-83.83230285 7.72103962 -82.77672179 7.41150349 -81.68915343 7.09258747 C-54.69724871 -0.25794012 -27.73658837 -0.14819264 0 0 Z " fill="#3534D5" transform="translate(306.32538390159607,1560.5944242477417)"/>
<path d="M0 0 C0.33 0 0.66 0 1 0 C3.77753802 15.92929926 -4.18903047 27.66892757 -12 41 C-12.38784668 41.67691895 -12.77569336 42.35383789 -13.17529297 43.05126953 C-15.32119227 46.7907752 -17.62932736 50.39962017 -20 54 C-20.7118042 55.10311523 -20.7118042 55.10311523 -21.43798828 56.22851562 C-30.32046003 69.99078001 -39.87813929 83.12516937 -50 96 C-50.66362549 96.84836426 -51.32725098 97.69672852 -52.01098633 98.57080078 C-56.11315057 103.76664548 -60.36740653 108.71259286 -64.9375 113.5 C-66.16621441 114.79867564 -67.39408015 116.09815478 -68.62109375 117.3984375 C-69.20487793 118.01686523 -69.78866211 118.63529297 -70.39013672 119.27246094 C-72.47781453 121.51274122 -74.48842067 123.81638372 -76.5 126.125 C-85.37516631 136.03945158 -95.56955374 144.77447086 -106 153 C-106.64420898 153.51675293 -107.28841797 154.03350586 -107.95214844 154.56591797 C-144.94785505 184.23867579 -187.53560706 205.15577837 -234 215 C-234.74556152 215.16725586 -235.49112305 215.33451172 -236.25927734 215.50683594 C-260.681286 220.96000954 -286.60625431 220.30342076 -311.50417471 220.20278788 C-315.23561379 220.18996611 -318.96705914 220.18908605 -322.69851685 220.18673706 C-329.7099104 220.18061186 -336.72123881 220.16432763 -343.73260415 220.14403808 C-351.73797501 220.12139341 -359.74334962 220.11061517 -367.74874473 220.10064721 C-384.16586747 220.07994917 -400.58292532 220.04495524 -417 220 C-417 217.03 -417 214.06 -417 211 C-416.22622765 210.99668985 -415.45245529 210.99337971 -414.65523529 210.98996925 C-395.76436938 210.90849146 -376.87358277 210.81631954 -357.98282623 210.71247292 C-348.84712878 210.66250569 -339.71143958 210.61606196 -330.57568359 210.578125 C-322.60622778 210.54502202 -314.63683927 210.50509207 -306.66745806 210.45720994 C-302.45386117 210.43212544 -298.24030788 210.41029262 -294.0266571 210.39665604 C-290.04740759 210.38366964 -286.06830902 210.36144357 -282.08914375 210.33261681 C-280.6413545 210.32366866 -279.19354103 210.31788136 -277.74572563 210.31578636 C-227.0072534 210.22934477 -175.60831427 191.44829371 -134 163 C-133.3390332 162.54850586 -132.67806641 162.09701172 -131.99707031 161.63183594 C-124.41272936 156.40775111 -117.08758815 150.8828067 -110 145 C-109.50677246 144.59168945 -109.01354492 144.18337891 -108.50537109 143.76269531 C-93.33279411 131.17099654 -78.35754338 118.03717515 -66.0625 102.55859375 C-64.19791779 100.24552301 -62.26223072 98.05910876 -60.25 95.875 C-35.67542022 68.34953564 -14.24081975 34.0541342 0 0 Z " fill="#3534D6" transform="translate(2987,997)"/>
<path d="M0 0 C2.06387517 2.6121664 3.63634988 5.10181338 4.98828125 8.140625 C5.35727539 8.95144531 5.72626953 9.76226563 6.10644531 10.59765625 C6.70344238 11.91056641 6.70344238 11.91056641 7.3125 13.25 C21.19611943 42.9931847 39.71885815 72.30061369 62.3671875 96.19140625 C64.40609223 98.36643963 66.36892988 100.56558664 68.31640625 102.8203125 C78.25071689 114.22353569 89.08616659 124.76040645 101.27294922 133.72607422 C103.04097911 135.03022745 104.7886222 136.35863842 106.53515625 137.69140625 C134.21249092 158.6332881 164.81985665 173.97068858 198.5625 182.375 C199.45702881 182.60171387 200.35155762 182.82842773 201.27319336 183.06201172 C224.60636666 188.48282936 248.80297909 188.91681073 272.62817383 190.00195312 C279.74212994 190.32804989 286.85526771 190.67168543 293.96849632 191.0132103 C296.42038782 191.12958992 298.87243006 191.24210173 301.32453918 191.35379028 C305.55097989 191.54839393 309.77543072 191.76817262 314 192 C315.11829193 192.05637634 316.23658386 192.11275269 317.38876343 192.1708374 C318.3641507 192.2354718 319.33953796 192.3001062 320.34448242 192.36669922 C321.16099777 192.41688202 321.97751312 192.46706482 322.81877136 192.51876831 C325.46577615 193.10276146 326.95804608 194.25508773 329 196 C328.67 197.65 328.34 199.3 328 201 C323.22520906 202.28514543 318.71085368 201.96141489 313.82958984 201.70214844 C312.91328293 201.65834549 311.99697601 201.61454254 311.05290222 201.56941223 C308.02188525 201.4225992 304.99143951 201.26643736 301.9609375 201.109375 C299.83884945 201.00277663 297.71674839 200.89643717 295.59463501 200.79034424 C291.13740156 200.56589053 286.68045367 200.33650038 282.22363281 200.10400391 C276.56398651 199.80939771 270.90372323 199.52956899 265.24312401 199.25396347 C260.85158199 199.0379713 256.46056257 198.81249101 252.06962967 198.58448029 C249.98659918 198.47767132 247.90340543 198.3739915 245.82004929 198.27373505 C228.65843649 197.44109967 211.86283209 195.69573434 195.25 191.125 C194.27595215 190.86162842 193.3019043 190.59825684 192.29833984 190.3269043 C189.52727716 189.56767445 186.76264226 188.78925084 184 188 C182.97277832 187.71068604 182.97277832 187.71068604 181.92480469 187.41552734 C144.39577424 176.62319065 110.48551319 154.26892525 82 128 C80.33404877 126.5200276 78.66737344 125.04086992 77 123.5625 C64.29326618 112.11247612 53.52355174 99.4200621 43 86 C42.50838379 85.37593262 42.01676758 84.75186523 41.51025391 84.10888672 C27.9243199 66.76852599 16.47807273 48.02326901 6.31079102 28.49951172 C5.41967165 26.80026046 4.50234661 25.11455049 3.56225586 23.44189453 C0.53488761 17.87256336 -0.70237005 13.69689274 -0.3125 7.375 C-0.28994141 6.65699219 -0.26738281 5.93898438 -0.24414062 5.19921875 C-0.18633998 3.46519927 -0.09671565 1.73228478 0 0 Z " fill="#079764" transform="translate(0,1083)"/>
<path d="M0 0 C1.017591 3.95729831 1.05085133 7.03731832 0 11 C-3.72149797 16.44179875 -9.02551671 20.74119453 -14 25 C-14.79881592 25.68570068 -14.79881592 25.68570068 -15.61376953 26.38525391 C-17.81004865 28.24909196 -20.03664749 30.06406323 -22.3046875 31.83984375 C-24.53415433 33.62664832 -26.66117085 35.46387677 -28.79296875 37.36328125 C-32.83510573 40.9188647 -37.05960419 44.12161242 -41.4375 47.25 C-42.21609375 47.80792236 -42.9946875 48.36584473 -43.796875 48.94067383 C-76.94883777 72.51592361 -114.18137061 90.92019735 -154 100 C-154.74507812 100.17869629 -155.49015625 100.35739258 -156.2578125 100.54150391 C-183.024848 106.90557356 -210.46401819 107.45725284 -237.82678866 107.30418181 C-241.86384318 107.28497456 -245.90091038 107.28363095 -249.93800354 107.28010559 C-257.52667751 107.27091075 -265.11521635 107.24647415 -272.70383173 107.21605712 C-281.36700255 107.18211301 -290.03018104 107.16592831 -298.69340217 107.15097082 C-316.46234373 107.11990767 -334.23116087 107.06740195 -352 107 C-352 104.03 -352 101.06 -352 98 C-351.26544618 97.99668985 -350.53089235 97.99337971 -349.77407932 97.98996925 C-331.78133677 97.90823715 -313.7886751 97.8159879 -295.79604435 97.71247292 C-287.09443424 97.66265646 -278.39283212 97.61621418 -269.69116211 97.578125 C-262.09407885 97.54486183 -254.49706394 97.50485071 -246.90005678 97.45720994 C-242.88905917 97.43228014 -238.87810488 97.41040665 -234.86705208 97.39665604 C-189.10050929 97.23354932 -148.34922003 91.73733352 -106 74 C-105.19336914 73.66661621 -104.38673828 73.33323242 -103.55566406 72.98974609 C-82.58161954 64.25267434 -63.17525297 52.59313572 -45 39 C-44.1018457 38.33508545 -44.1018457 38.33508545 -43.18554688 37.65673828 C-36.59288167 32.76334531 -30.29021413 27.63230869 -24.25 22.06640625 C-22.2655318 20.24386514 -20.24214108 18.49216442 -18.1875 16.75 C-13.6601017 12.82811794 -9.49231397 8.54323721 -5.3034668 4.26660156 C-1.10239964 0 -1.10239964 0 0 0 Z " fill="#E4F058" transform="translate(2988,1178)"/>
<path d="M0 0 C0.04063832 1.66617115 0.042721 3.33388095 0 5 C-3.26034339 6.9325112 -5.69746337 7.25521497 -9.46482849 7.27174377 C-10.57588959 7.2814621 -11.68695068 7.29118042 -12.8316803 7.30119324 C-14.65414528 7.30207695 -14.65414528 7.30207695 -16.51342773 7.30297852 C-17.79701172 7.31141785 -19.0805957 7.31985718 -20.40307617 7.32855225 C-23.19622276 7.34682929 -25.98930244 7.35886986 -28.78249931 7.36609077 C-33.22031185 7.37762014 -37.65797885 7.40310666 -42.09571838 7.43040466 C-49.13957067 7.4720867 -56.18343027 7.50446336 -63.22734743 7.53287882 C-75.77407905 7.58362538 -88.32074341 7.64685747 -100.867374 7.71821922 C-105.25612138 7.74277828 -109.6448528 7.7622451 -114.03364104 7.77773184 C-143.80268377 7.73545342 -143.80268377 7.73545342 -173.375 10.75 C-174.50147949 10.924104 -175.62795898 11.09820801 -176.78857422 11.27758789 C-195.76306179 14.30322062 -216.29746025 17.5813608 -233.75390625 25.99609375 C-236.48939317 27.21873747 -239.28097525 28.11900071 -242.125 29.0625 C-280.36749662 42.64165388 -313.52877592 67.04959055 -343.9140625 93.34375 C-346.91095093 95.93482964 -349.94982231 98.4719248 -353 101 C-353.7270924 97.13686262 -353.86035862 93.85206018 -353 90 C-349.86888796 85.99122777 -346.0201479 83.08346357 -342 80 C-340.35327499 78.60521872 -338.7074363 77.20939035 -337.0625 75.8125 C-305.66758345 50.48097935 -271.42469855 28.91801198 -233.10498047 15.73193359 C-231.23906896 15.0831279 -229.38598084 14.39769973 -227.53515625 13.70703125 C-193.03476316 1.2675663 -156.49093076 -1.61275373 -120.13508129 -1.64043641 C-116.1189711 -1.64746972 -112.1030012 -1.67611954 -108.0869751 -1.701828 C-101.38465186 -1.74182551 -94.68240235 -1.76800782 -87.97998047 -1.78393555 C-79.38655907 -1.80441367 -70.79340704 -1.84778676 -62.2001152 -1.89822865 C-54.75519157 -1.9418585 -47.31023028 -1.97642568 -39.86525059 -2.00889373 C-37.49142903 -2.01949973 -35.11761383 -2.03112321 -32.7437973 -2.04279518 C-29.03015861 -2.06037606 -25.31654123 -2.07232097 -21.60286903 -2.07987976 C-19.59667978 -2.08505396 -17.5905051 -2.09514919 -15.58433533 -2.10539246 C-14.38827164 -2.10665131 -13.19220795 -2.10791016 -11.9598999 -2.10920715 C-10.92334133 -2.11230802 -9.88678276 -2.11540888 -8.81881332 -2.11860371 C-1.82430445 -1.82430445 -1.82430445 -1.82430445 0 0 Z " fill="#079865" transform="translate(353,1468)"/>
<path d="M0 0 C0.77721405 0.03837982 1.5544281 0.07675964 2.35519409 0.11630249 C3.23174652 0.15750214 4.10829895 0.19870178 5.01141357 0.2411499 C6.44591354 0.31736069 6.44591354 0.31736069 7.90939331 0.39511108 C8.89787262 0.44422638 9.88635193 0.49334167 10.90478516 0.54394531 C101.4659828 5.15550503 101.4659828 5.15550503 137.21408081 21.04354858 C138.74726993 21.6578561 140.28263987 22.26673456 141.81954956 22.87167358 C174.38021211 35.85802226 204.96057834 53.69436371 231.21408081 77.04354858 C232.60971415 78.25211291 234.00552291 79.46047472 235.40158081 80.66854858 C236.67301241 81.7928724 237.94383582 82.91788432 239.21408081 84.04354858 C239.91017456 84.64682983 240.60626831 85.25011108 241.32345581 85.87167358 C252.66644937 95.84437262 263.77380187 106.46515024 273.10470581 118.36386108 C275.14379928 120.95426502 277.24865431 123.46762325 279.39108276 125.97225952 C280.81073781 127.63534555 282.21419273 129.31107933 283.61642456 130.98886108 C285.18792769 132.86175627 286.77909971 134.63696532 288.46798706 136.41073608 C292.58534292 140.95230437 293.62481741 143.90363015 293.65158081 150.10604858 C293.54036745 152.08746213 293.40641003 154.06835808 293.21408081 156.04354858 C290.25643221 153.22953854 287.87134554 150.31877447 285.52658081 146.98104858 C281.32098301 141.12574114 276.83813331 135.57149503 272.21408081 130.04354858 C271.44708862 129.08964233 270.68009644 128.13573608 269.88986206 127.15292358 C262.83443725 118.5112898 255.01537802 110.62836475 247.15158081 102.73104858 C246.59713287 102.17142426 246.04268494 101.61179993 245.47143555 101.03521729 C238.38764707 93.89939692 231.13174854 87.26418929 223.21408081 81.04354858 C221.77752584 79.8825319 220.34130466 78.72110204 218.90548706 77.55917358 C192.17040851 56.28245358 162.32967242 39.71130301 130.21408081 28.04354858 C129.42477173 27.7408606 128.63546265 27.43817261 127.82223511 27.12631226 C121.02603379 24.56259249 114.21922066 22.63955231 107.15158081 20.98104858 C106.15964722 20.7380603 105.16771362 20.49507202 104.14572144 20.24472046 C86.76064393 16.10437035 69.38141972 14.27925104 51.58908081 12.91854858 C48.36834824 12.66566716 45.14780295 12.41057566 41.92736816 12.15393066 C39.94415732 11.9965637 37.96074766 11.84167431 35.97711182 11.6897583 C31.93303315 11.37456436 27.9077426 11.0299326 23.88449097 10.50912476 C20.85257751 10.12453922 17.88935729 9.86059193 14.83908081 9.72714233 C13.45656128 9.66430054 13.45656128 9.66430054 12.04611206 9.60018921 C11.11154175 9.5608728 10.17697144 9.5215564 9.21408081 9.48104858 C8.248573 9.43786499 7.28306519 9.3946814 6.28829956 9.35018921 C3.93033656 9.24513145 1.57228665 9.14297944 -0.78591919 9.04354858 C-0.78591919 8.38354858 -0.78591919 7.72354858 -0.78591919 7.04354858 C-1.44591919 7.04354858 -2.10591919 7.04354858 -2.78591919 7.04354858 C-2.82846275 5.04400112 -2.82672702 3.04313222 -2.78591919 1.04354858 C-1.78591919 0.04354858 -1.78591919 0.04354858 0 0 Z " fill="#079865" transform="translate(2694.785919189453,1534.9564514160156)"/>
<path d="M0 0 C33.58096284 -0.06839205 67.16190639 -0.12150536 100.74292337 -0.15319599 C104.70467364 -0.15694825 108.66642377 -0.1608312 112.62817383 -0.16479492 C113.81127688 -0.16597532 113.81127688 -0.16597532 115.01828101 -0.16717956 C127.80059855 -0.18024454 140.58287574 -0.20390437 153.36516932 -0.23145839 C166.47445515 -0.25948225 179.5837198 -0.27616985 192.69303435 -0.28226548 C200.78655494 -0.28638821 208.87996149 -0.29942389 216.97344699 -0.3237494 C223.17255186 -0.34143563 229.37156922 -0.34337328 235.57069588 -0.33932304 C238.11889602 -0.34015152 240.66710029 -0.34616024 243.21527481 -0.35761642 C246.68260357 -0.37244635 250.14943632 -0.36898821 253.61677551 -0.36076355 C254.63524734 -0.36950207 255.65371916 -0.3782406 256.70305377 -0.38724393 C257.62864335 -0.38127078 258.55423293 -0.37529764 259.50787067 -0.36914349 C260.70911594 -0.37085223 260.70911594 -0.37085223 261.93462878 -0.37259549 C264.53254067 0.09607099 265.44854669 0.89161729 267 3 C266.8125 5.625 266.8125 5.625 266 8 C263.64475405 9.17762297 262.25677629 9.12429231 259.6309185 9.12304783 C258.70731997 9.12503888 257.78372144 9.12702993 256.83213508 9.12908131 C255.81075041 9.12616847 254.78936575 9.12325563 253.73703003 9.12025452 C252.65726336 9.12110894 251.57749668 9.12196337 250.46500981 9.12284368 C246.82284808 9.12449951 243.18073175 9.11897541 239.53857422 9.11352539 C236.93732708 9.11324352 234.33607986 9.11340126 231.73483276 9.1139679 C226.12215576 9.11449301 220.50949034 9.11134752 214.89681625 9.10573006 C206.78176786 9.09761336 198.66672509 9.09499966 190.55167307 9.09374207 C177.38649631 9.09155181 164.22132574 9.08489245 151.05615234 9.07543945 C138.26513703 9.06626465 125.4741234 9.05918415 112.68310547 9.05493164 C111.89506408 9.05466892 111.1070227 9.05440619 110.29510127 9.05413551 C106.34184774 9.0528305 102.38859419 9.05156678 98.43534064 9.05032361 C65.62355588 9.03995183 32.81177887 9.02226006 0 9 C0 6.03 0 3.06 0 0 Z " fill="#E1EE57" transform="translate(0,1410)"/>
<path d="M0 0 C0 2.97 0 5.94 0 9 C-21.64512512 20.12635379 -45.08151243 27.61111594 -68.6965332 33.20117188 C-71.72058004 33.93243204 -74.72811162 34.71497053 -77.73735046 35.50444031 C-85.9230019 37.62702246 -94.09944637 39.14525951 -102.4699707 40.328125 C-104.53970837 40.62176647 -106.60666489 40.93099636 -108.67382812 41.2421875 C-129.72342404 44.33937354 -150.63499011 45.30679745 -171.89453125 45.265625 C-174.39035581 45.26697619 -176.88618011 45.26892047 -179.38200378 45.27142334 C-184.55604615 45.2743418 -189.7300186 45.27017633 -194.90405273 45.26074219 C-200.21399841 45.2515321 -205.52380482 45.25115677 -210.83374023 45.26074219 C-217.29227322 45.27229721 -223.750725 45.27417722 -230.20926476 45.26763153 C-232.66097724 45.26629664 -235.1126932 45.26793715 -237.56440163 45.27259064 C-240.96466094 45.2776405 -244.36465331 45.26997311 -247.76489258 45.25878906 C-249.28485588 45.26486176 -249.28485588 45.26486176 -250.83552551 45.27105713 C-251.75583557 45.26541748 -252.67614563 45.25977783 -253.62434387 45.25396729 C-254.82672054 45.25283621 -254.82672054 45.25283621 -256.05338764 45.25168228 C-258 45 -258 45 -260 43 C-259.44444444 38.44444444 -259.44444444 38.44444444 -258 37 C-252.04979647 35.85766998 -246.1840988 35.85496369 -240.140625 35.8581543 C-239.06773727 35.85467987 -237.99484955 35.85120544 -236.88945007 35.84762573 C-234.56293248 35.84028905 -232.23640797 35.83493258 -229.90988159 35.83133507 C-226.19580605 35.82411337 -222.48185839 35.80839672 -218.76782227 35.78999329 C-208.2076851 35.73784825 -197.64766134 35.68976577 -187.08740234 35.67407227 C-145.86729166 35.73347361 -145.86729166 35.73347361 -105 31 C-102.46409392 30.58459887 -99.92770225 30.17215292 -97.39086914 29.76245117 C-75.9138284 26.28363451 -55.57039888 20.72492131 -35.0625 13.5625 C-34.28407745 13.29163574 -33.50565491 13.02077148 -32.7036438 12.74169922 C-22.93000285 9.3238097 -13.40175853 5.55796986 -3.96264648 1.30053711 C-1 0 -1 0 0 0 Z " fill="#079463" transform="translate(2988,1298)"/>
<path d="M0 0 C1.66666667 0.33333333 3.33333333 0.66666667 5 1 C5.33 0.67 5.66 0.34 6 0 C7.42461215 0.016784 8.84837023 0.1098773 10.26782227 0.23217773 C11.20117905 0.30976822 12.13453583 0.3873587 13.09617615 0.46730042 C14.13822708 0.55930222 15.18027802 0.65130402 16.25390625 0.74609375 C17.35456924 0.83878036 18.45523224 0.93146698 19.58924866 1.02696228 C22.05017474 1.23437355 24.51091416 1.44400732 26.97149658 1.65545654 C31.18457114 2.01716925 35.39857712 2.36720048 39.61279297 2.71533203 C40.35470194 2.77665503 41.09661091 2.83797802 41.86100197 2.90115929 C43.38971698 3.02748794 44.91843469 3.15378391 46.447155 3.28004837 C50.38736935 3.60573715 54.32747167 3.93277457 58.26757812 4.25976562 C59.06110876 4.32557138 59.8546394 4.39137714 60.67221642 4.45917702 C64.72371479 4.7952629 68.77513268 5.1322785 72.82641602 5.47094727 C76.83622975 5.80608262 80.84624135 6.13875886 84.85638618 6.46990776 C86.35155992 6.5938014 87.84666468 6.71853114 89.34168816 6.84422493 C98.17154569 7.58612021 106.99623694 8.21081664 115.8473196 8.64199162 C133.96816819 9.55908764 151.36878496 13.68608188 168.5 19.4375 C169.18401886 19.66620789 169.86803772 19.89491577 170.57278442 20.1305542 C191.93239474 27.34568525 212.90398682 37.60029199 231.25048828 50.76611328 C233.07638652 52.05387349 234.9380236 53.2743314 236.80859375 54.49609375 C245.55272731 60.41500456 245.55272731 60.41500456 246.8046875 64.8515625 C246.81180128 67.37695582 246.60879492 69.55441356 246 72 C240.90353052 68.76038374 236.12548858 65.3082052 231.4375 61.5 C215.82460282 49.21015822 197.73507616 40.37795232 179.3984375 32.97070312 C177.38125062 32.15430094 175.37651823 31.30722114 173.375 30.453125 C156.58542364 23.51457559 138.12879682 20.24927021 120.10888672 18.79492188 C118.87018326 18.69055313 117.6314798 18.58618439 116.35523987 18.47865295 C113.6862055 18.25432326 111.01709378 18.03185547 108.34765244 17.81251526 C104.12851548 17.46551718 99.91017582 17.10941999 95.69192505 16.75183105 C84.46664223 15.80158239 73.24046878 14.86206325 62.01364815 13.93016291 C54.61312779 13.31586325 47.21309853 12.69623925 39.81390011 12.06619883 C35.61745369 11.70930373 31.42040617 11.3610516 27.22271228 11.01915741 C24.01355513 10.75535619 20.80545102 10.47927554 17.59716797 10.20507812 C16.43050095 10.11255264 15.26383392 10.02002716 14.06181335 9.92469788 C13.00773788 9.83228317 11.95366241 9.73986847 10.86764526 9.64465332 C9.94631239 9.56797676 9.02497952 9.4913002 8.07572746 9.41230011 C7.3907374 9.27624107 6.70574734 9.14018204 6 9 C5.67 8.34 5.34 7.68 5 7 C4.21625 7.20625 3.4325 7.4125 2.625 7.625 C1.75875 7.74875 0.8925 7.8725 0 8 C-0.66 7.34 -1.32 6.68 -2 6 C-1.44444444 1.44444444 -1.44444444 1.44444444 0 0 Z " fill="#F0A0D9" transform="translate(2742,1467)"/>
<path d="M0 0 C4.22148094 3.06264304 8.27047303 6.20711384 12.19458008 9.64501953 C41.33955698 35.03422402 76.76720481 53.02442091 114 63 C114.87011719 63.26425781 115.74023438 63.52851562 116.63671875 63.80078125 C125.56001137 66.46547047 134.78459279 67.77300047 144 69 C145.0523584 69.14248169 145.0523584 69.14248169 146.12597656 69.2878418 C155.24469721 70.35952034 164.45560332 70.35437491 173.625 70.5625 C175.41016462 70.60577574 177.19532101 70.64939263 178.98046875 70.69335938 C183.32022748 70.7995089 187.66007178 70.90103258 192 71 C193.36623674 73.73247348 193.128426 75.98198902 193 79 C189.89473394 82.10526606 178.11176342 80.24906489 173.52493286 80.2510376 C119.71167205 80.1521672 69.74347278 61.81012012 26 31 C25.38801758 30.56945313 24.77603516 30.13890625 24.14550781 29.6953125 C20.67904879 27.23137741 17.33234118 24.64132364 14 22 C13.08420166 21.31623291 13.08420166 21.31623291 12.14990234 20.61865234 C0.58163722 11.96881627 0.58163722 11.96881627 -0.8828125 7.01171875 C-0.87573743 4.51068202 -0.67007045 2.40374479 0 0 Z " fill="#F1A1DA" transform="translate(0,1263)"/>
<path d="M0 0 C0.83753199 0.00291284 1.67506398 0.00582568 2.53797573 0.00882679 C3.42087746 0.00797237 4.3037792 0.00711794 5.21343553 0.00623763 C8.19536925 0.00458011 11.17724769 0.01010861 14.15917629 0.01555592 C16.28737554 0.01583776 18.41557488 0.01568012 20.54377407 0.01511341 C26.34105907 0.01482531 32.13832358 0.02072408 37.9356038 0.02768737 C43.9868064 0.03391881 50.03800942 0.03452454 56.08921474 0.03571278 C67.55687621 0.03882672 79.02452819 0.04704094 90.49218547 0.05706227 C103.54395424 0.06822147 116.59572346 0.07373337 129.64749581 0.0787577 C156.50417777 0.0892235 183.3608513 0.10682415 210.2175259 0.12908131 C210.2175259 2.76908131 210.2175259 5.40908131 210.2175259 8.12908131 C182.66252048 8.17577327 155.10752097 8.2110564 127.55248398 8.23270565 C114.75860756 8.24302433 101.9647557 8.25709598 89.17089504 8.27996022 C78.02158149 8.29987597 66.87228572 8.31279344 55.72295487 8.3172583 C49.81785146 8.31986875 43.91279895 8.32601677 38.00771183 8.34054142 C32.45184567 8.35409663 26.89605145 8.35830811 21.34017032 8.35529667 C19.29915645 8.35584776 17.25814021 8.35983743 15.21714061 8.36749226 C12.43371764 8.37742119 9.65056743 8.37505763 6.86713833 8.36959034 C6.05682149 8.37541602 5.24650466 8.38124171 4.41163278 8.38724393 C0.23992557 8.36504809 -3.03196614 8.01441993 -6.7824741 6.12908131 C-6.8251951 4.46296226 -6.82311242 2.79525246 -6.7824741 1.12908131 C-4.9591514 -0.69424139 -2.42677931 0.00640483 0 0 Z " fill="#F66D46" transform="translate(2777.7824741005898,1410.8709186911583)"/>
<path d="M0 0 C16.89807318 -0.04669084 33.79612626 -0.08197451 50.69424915 -0.10362434 C58.5400845 -0.11394327 66.38587981 -0.12801536 74.23168945 -0.15087891 C81.06894335 -0.17079394 87.90616825 -0.18371195 94.74345034 -0.18817699 C98.36478336 -0.19078758 101.9860334 -0.19693633 105.60733986 -0.21146011 C109.64687427 -0.22753031 113.68626382 -0.2279809 117.72583008 -0.22705078 C118.93064026 -0.23424133 120.13545044 -0.24143188 121.37677002 -0.24884033 C123.02371605 -0.24471634 123.02371605 -0.24471634 124.70393372 -0.24050903 C125.65983304 -0.24235262 126.61573236 -0.24419621 127.60059834 -0.24609566 C130 0 130 0 133 2 C132.67 4.31 132.34 6.62 132 9 C128.79140341 10.0695322 126.50745791 10.1231698 123.13447571 10.12025452 C121.91029938 10.12162918 120.68612305 10.12300385 119.42485046 10.12442017 C118.06619238 10.12088104 116.70753455 10.11724623 115.34887695 10.11352539 C113.91988121 10.11324335 112.49088531 10.11340158 111.06188965 10.1139679 C107.17994704 10.11425523 103.29803523 10.10836884 99.41609979 10.10139394 C95.36018037 10.09514975 91.30426027 10.09455576 87.24833679 10.09336853 C79.56670657 10.09025837 71.88509056 10.0820492 64.20346659 10.07201904 C55.45870442 10.06084815 46.71394156 10.05534499 37.96917403 10.05032361 C19.97944129 10.03986634 1.98972179 10.02227297 -16 10 C-16 9.67 -16 9.34 -16 9 C31.19 8.67 78.38 8.34 127 8 C126.67 7.67 126.34 7.34 126 7 C126 5.35 126 3.7 126 2 C84.42 1.67 42.84 1.34 0 1 C0 0.67 0 0.34 0 0 Z " fill="#421E14" transform="translate(339,1649)"/>
<path d="M0 0 C24.86875669 -0.0466634 49.73750684 -0.08196102 74.60629845 -0.10362434 C86.15258622 -0.11394911 97.69884684 -0.12803229 109.24511719 -0.15087891 C119.30558783 -0.17077612 129.36603881 -0.1837077 139.42652857 -0.18817699 C144.75641667 -0.19079061 150.08624851 -0.1969585 155.41611862 -0.21146011 C160.42780312 -0.22498614 165.43940792 -0.22923278 170.45110893 -0.22621536 C172.29503881 -0.22676777 174.13897122 -0.23077474 175.98288536 -0.23841095 C178.49148717 -0.24829442 180.99978414 -0.24599325 183.50839233 -0.24050903 C184.6144105 -0.24924756 184.6144105 -0.24924756 185.74277246 -0.25816262 C190.77175758 -0.22824242 190.77175758 -0.22824242 193 2 C192.625 4.625 192.625 4.625 192 7 C190.35 7.33 188.7 7.66 187 8 C185 5 185 5 185 2 C123.95 1.67 62.9 1.34 0 1 C0 0.67 0 0.34 0 0 Z " fill="#0D0D36" transform="translate(278,1560)"/>
<path d="M0 0 C46.53 0 93.06 0 141 0 C141 0.33 141 0.66 141 1 C76.155 1.495 76.155 1.495 10 2 C10.33 3.65 10.66 5.3 11 7 C9 9 9 9 6.8359375 9.1953125 C4.55729167 9.13020833 2.27864583 9.06510417 0 9 C0 6.03 0 3.06 0 0 Z " fill="#1B1B70" transform="translate(2570,1208)"/>
<path d="M0 0 C9.24 0 18.48 0 28 0 C29.36623674 2.73247348 29.128426 4.98198902 29 8 C28 9 28 9 24.67358398 9.11352539 C23.19774444 9.11336629 21.72189931 9.10767314 20.24609375 9.09765625 C19.47064713 9.0962413 18.6952005 9.09482635 17.89625549 9.09336853 C15.40996506 9.08775345 12.9237634 9.07519846 10.4375 9.0625 C8.75586067 9.05748694 7.07421994 9.0529237 5.39257812 9.04882812 C1.26168434 9.03777913 -2.86914276 9.02050445 -7 9 C-7 8.67 -7 8.34 -7 8 C2.57 8 12.14 8 22 8 C22 6.02 22 4.04 22 2 C14.74 1.67 7.48 1.34 0 1 C0 0.67 0 0.34 0 0 Z " fill="#597C7A" transform="translate(164,1334)"/>
<path d="M0 0 C6.37203593 -0.0505963 12.7440203 -0.08568957 19.11621094 -0.10986328 C21.28517594 -0.11993789 23.45412731 -0.13359798 25.62304688 -0.15087891 C28.73571126 -0.17506323 31.84819651 -0.18646832 34.9609375 -0.1953125 C35.934935 -0.20563507 36.9089325 -0.21595764 37.91244507 -0.22659302 C39.26361923 -0.22681961 39.26361923 -0.22681961 40.64208984 -0.22705078 C41.43706879 -0.231492 42.23204773 -0.23593323 43.05111694 -0.24050903 C45 0 45 0 47 2 C46.875 4.5 46.875 4.5 46 7 C44.25 8.5 44.25 8.5 42 9 C39.25 7.875 39.25 7.875 37 6 C37 4.68 37 3.36 37 2 C18.685 1.505 18.685 1.505 0 1 C0 0.67 0 0.34 0 0 Z " fill="#B15C5E" transform="translate(340,1208)"/>
<path d="M0 0 C1.66666667 0.33333333 3.33333333 0.66666667 5 1 C5.33 0.67 5.66 0.34 6 0 C7.66617115 -0.04063832 9.33388095 -0.042721 11 0 C9.68 0.33 8.36 0.66 7 1 C7 3.31 7 5.62 7 8 C7.99 8.33 8.98 8.66 10 9 C8.68 9 7.36 9 6 9 C5.67 8.34 5.34 7.68 5 7 C4.21625 7.20625 3.4325 7.4125 2.625 7.625 C1.75875 7.74875 0.8925 7.8725 0 8 C-0.66 7.34 -1.32 6.68 -2 6 C-1.44444444 1.44444444 -1.44444444 1.44444444 0 0 Z " fill="#D06350" transform="translate(2742,1467)"/>
<path d="M0 0 C2.33944736 0.28730055 4.6739143 0.61936779 7 1 C7.33 2.65 7.66 4.3 8 6 C4.77626323 8.14915785 3.73296326 8.38286803 0 8 C-0.66 7.34 -1.32 6.68 -2 6 C-1.44444444 1.44444444 -1.44444444 1.44444444 0 0 Z " fill="#947CDC" transform="translate(2730,1335)"/>
<path d="M0 0 C4.55555556 0.55555556 4.55555556 0.55555556 6 2 C6.04063832 3.66617115 6.042721 5.33388095 6 7 C3.69 7.33 1.38 7.66 -1 8 C-1.625 5.125 -1.625 5.125 -2 2 C-1.34 1.34 -0.68 0.68 0 0 Z " fill="#907DD8" transform="translate(347,1466)"/>
<path d="M0 0 C0.625 2.375 0.625 2.375 1 5 C0.34 5.66 -0.32 6.32 -1 7 C-5.55555556 6.44444444 -5.55555556 6.44444444 -7 5 C-7.04063832 3.33382885 -7.042721 1.66611905 -7 0 C-4.3333581 -1.33332095 -2.83319697 -0.67102033 0 0 Z " fill="#DB9DCD" transform="translate(328,1278)"/>
<path d="M0 0 C3.125 0.375 3.125 0.375 6 1 C6.125 3.375 6.125 3.375 6 6 C5.34 6.66 4.68 7.32 4 8 C1.375 7.625 1.375 7.625 -1 7 C-1.625 4.625 -1.625 4.625 -2 2 C-1.34 1.34 -0.68 0.68 0 0 Z " fill="#DD613F" transform="translate(2525,1209)"/>
<path d="M0 0 C0.625 2.375 0.625 2.375 1 5 C0.34 5.66 -0.32 6.32 -1 7 C-3.625 6.625 -3.625 6.625 -6 6 C-6.33 4.02 -6.66 2.04 -7 0 C-4.3333581 -1.33332095 -2.83319697 -0.67102033 0 0 Z " fill="#EA6C52" transform="translate(2510,1651)"/>
<path d="M0 0 C2.625 0.375 2.625 0.375 5 1 C5.625 3.375 5.625 3.375 6 6 C5.34 6.66 4.68 7.32 4 8 C1.375 7.625 1.375 7.625 -1 7 C-1.625 4.625 -1.625 4.625 -2 2 C-1.34 1.34 -0.68 0.68 0 0 Z " fill="#078F5F" transform="translate(490,1560)"/>
<path d="M0 0 C2.625 0.375 2.625 0.375 5 1 C5.625 3.375 5.625 3.375 6 6 C5.34 6.66 4.68 7.32 4 8 C1.375 7.625 1.375 7.625 -1 7 C-1.625 4.625 -1.625 4.625 -2 2 C-1.34 1.34 -0.68 0.68 0 0 Z " fill="#D9E554" transform="translate(2562,1535)"/>
<path d="M0 0 C2.625 0.375 2.625 0.375 5 1 C5.625 3.375 5.625 3.375 6 6 C5.34 6.66 4.68 7.32 4 8 C1.375 7.625 1.375 7.625 -1 7 C-1.625 4.625 -1.625 4.625 -2 2 C-1.34 1.34 -0.68 0.68 0 0 Z " fill="#D8E354" transform="translate(2533,1535)"/>
<path d="M0 0 C2.625 0.375 2.625 0.375 5 1 C5.625 3.375 5.625 3.375 6 6 C5.34 6.66 4.68 7.32 4 8 C1.375 7.625 1.375 7.625 -1 7 C-1.625 4.625 -1.625 4.625 -2 2 C-1.34 1.34 -0.68 0.68 0 0 Z " fill="#E16340" transform="translate(2705,1467)"/>
<path d="M0 0 C0.33 1.65 0.66 3.3 1 5 C-2 7 -2 7 -4.125 6.6875 C-6 6 -6 6 -7 5 C-7.04063832 3.33382885 -7.042721 1.66611905 -7 0 C-4.3333581 -1.33332095 -2.83319697 -0.67102033 0 0 Z " fill="#F2A9D0" transform="translate(266,1412)"/>
<path d="M0 0 C2.625 0.375 2.625 0.375 5 1 C5.625 3.375 5.625 3.375 6 6 C5.34 6.66 4.68 7.32 4 8 C1.375 7.625 1.375 7.625 -1 7 C-1.625 4.625 -1.625 4.625 -2 2 C-1.34 1.34 -0.68 0.68 0 0 Z " fill="#078E5E" transform="translate(256,1335)"/>
<path d="M0 0 C2.625 0.375 2.625 0.375 5 1 C5.625 3.375 5.625 3.375 6 6 C5.34 6.66 4.68 7.32 4 8 C1.375 7.625 1.375 7.625 -1 7 C-1.625 4.625 -1.625 4.625 -2 2 C-1.34 1.34 -0.68 0.68 0 0 Z " fill="#E56855" transform="translate(2575,1209)"/>
<path d="M0 0 C0.625 2.375 0.625 2.375 1 5 C0.34 5.66 -0.32 6.32 -1 7 C-5.55555556 6.44444444 -5.55555556 6.44444444 -7 5 C-7.04063832 3.33382885 -7.042721 1.66611905 -7 0 C-4.3333581 -1.33332095 -2.83319697 -0.67102033 0 0 Z " fill="#E16340" transform="translate(2568,1210)"/>
<path d="M0 0 C2.625 0.375 2.625 0.375 5 1 C5.33 2.65 5.66 4.3 6 6 C3 8 3 8 0.8125 7.625 C0.214375 7.41875 -0.38375 7.2125 -1 7 C-1.625 4.625 -1.625 4.625 -2 2 C-1.34 1.34 -0.68 0.68 0 0 Z " fill="#089266" transform="translate(465,1560)"/>
<path d="M0 0 C2.5 0.125 2.5 0.125 3.5 1.125 C3.6875 3.5625 3.6875 3.5625 3.5 6.125 C2.84 6.785 2.18 7.445 1.5 8.125 C-1.125 7.75 -1.125 7.75 -3.5 7.125 C-3.54254356 5.12545254 -3.54080783 3.12458364 -3.5 1.125 C-2.5 0.125 -2.5 0.125 0 0 Z " fill="#078F5F" transform="translate(2579.5,1276.875)"/>
<path d="M0 0 C2.5625 0.1875 2.5625 0.1875 4.5625 2.1875 C4.5625 3.5075 4.5625 4.8275 4.5625 6.1875 C2.2364143 6.56813221 -0.09805264 6.90019945 -2.4375 7.1875 C-3.4375 6.1875 -3.4375 6.1875 -3.5625 3.6875 C-3.39599509 0.35740177 -3.31519894 0.2550153 0 0 Z " fill="#E46541" transform="translate(2481.4375,1649.8125)"/>
<path d="M0 0 C2.5 0.125 2.5 0.125 3.5 1.125 C3.21269945 3.46444736 2.88063221 5.7989143 2.5 8.125 C-2.375 7.25 -2.375 7.25 -3.5 6.125 C-3.625 3.625 -3.625 3.625 -3.5 1.125 C-2.5 0.125 -2.5 0.125 0 0 Z " fill="#DEEA56" transform="translate(2596.5,1534.875)"/>
<path d="M0 0 C2.5 0.125 2.5 0.125 3.5 1.125 C3.6875 3.5625 3.6875 3.5625 3.5 6.125 C2.84 6.785 2.18 7.445 1.5 8.125 C-2.03571429 7.58928571 -2.03571429 7.58928571 -3.5 6.125 C-3.625 3.625 -3.625 3.625 -3.5 1.125 C-2.5 0.125 -2.5 0.125 0 0 Z " fill="#E2EE58" transform="translate(2662.5,1534.875)"/>
<path d="M0 0 C2.5 0.125 2.5 0.125 3.5 1.125 C3.6875 3.5625 3.6875 3.5625 3.5 6.125 C2.84 6.785 2.18 7.445 1.5 8.125 C-2.03571429 7.58928571 -2.03571429 7.58928571 -3.5 6.125 C-3.625 3.625 -3.625 3.625 -3.5 1.125 C-2.5 0.125 -2.5 0.125 0 0 Z " fill="#E2EE57" transform="translate(2629.5,1534.875)"/>
<path d="M0 0 C2.5625 0.1875 2.5625 0.1875 4.5625 2.1875 C4.02678571 5.72321429 4.02678571 5.72321429 2.5625 7.1875 C0.0625 7.3125 0.0625 7.3125 -2.4375 7.1875 C-3.4375 6.1875 -3.4375 6.1875 -3.5625 3.6875 C-3.39599509 0.35740177 -3.31519894 0.2550153 0 0 Z " fill="#F29ED3" transform="translate(2774.4375,1410.8125)"/>
<path d="M0 0 C2.31 0.33 4.62 0.66 7 1 C6.67 2.65 6.34 4.3 6 6 C3.625 6.625 3.625 6.625 1 7 C0.34 6.34 -0.32 5.68 -1 5 C-0.625 2.375 -0.625 2.375 0 0 Z " fill="#E96742" transform="translate(2411,1650)"/>
<path d="M0 0 C1.67542976 0.28604898 3.34385343 0.61781233 5 1 C5.625 3.375 5.625 3.375 6 6 C5.34 6.66 4.68 7.32 4 8 C1.375 7.625 1.375 7.625 -1 7 C-1.04254356 5.00045254 -1.04080783 2.99958364 -1 1 C-0.67 0.67 -0.34 0.34 0 0 Z " fill="#E3F35A" transform="translate(2693,1535)"/>
<path d="M0 0 C3.69230769 0.69230769 3.69230769 0.69230769 5 2 C5.04063832 3.66617115 5.042721 5.33388095 5 7 C2.625 7.625 2.625 7.625 0 8 C-0.66 7.34 -1.32 6.68 -2 6 C-1.44444444 1.44444444 -1.44444444 1.44444444 0 0 Z " fill="#079663" transform="translate(222,1335)"/>
<path d="M0 0 C2.5 0.125 2.5 0.125 3.5 1.125 C3.625 3.625 3.625 3.625 3.5 6.125 C2.5 7.125 2.5 7.125 0 7.25 C-2.5 7.125 -2.5 7.125 -3.5 6.125 C-3.625 3.625 -3.625 3.625 -3.5 1.125 C-2.5 0.125 -2.5 0.125 0 0 Z " fill="#17ABAB" transform="translate(548.5,1649.875)"/>
<path d="M0 0 C2.5 0.125 2.5 0.125 3.5 1.125 C3.625 3.625 3.625 3.625 3.5 6.125 C2.5 7.125 2.5 7.125 0 7.25 C-2.5 7.125 -2.5 7.125 -3.5 6.125 C-3.625 3.625 -3.625 3.625 -3.5 1.125 C-2.5 0.125 -2.5 0.125 0 0 Z " fill="#17ABAB" transform="translate(532.5,1649.875)"/>
<path d="M0 0 C2.5 0.125 2.5 0.125 3.5 1.125 C3.625 3.625 3.625 3.625 3.5 6.125 C2.5 7.125 2.5 7.125 0 7.25 C-2.5 7.125 -2.5 7.125 -3.5 6.125 C-3.625 3.625 -3.625 3.625 -3.5 1.125 C-2.5 0.125 -2.5 0.125 0 0 Z " fill="#17ABAB" transform="translate(500.5,1649.875)"/>
<path d="M0 0 C2.5 0.125 2.5 0.125 3.5 1.125 C3.625 3.625 3.625 3.625 3.5 6.125 C2.5 7.125 2.5 7.125 0 7.25 C-2.5 7.125 -2.5 7.125 -3.5 6.125 C-3.625 3.625 -3.625 3.625 -3.5 1.125 C-2.5 0.125 -2.5 0.125 0 0 Z " fill="#1DADAC" transform="translate(468.5,1649.875)"/>
<path d="M0 0 C1.65 0 3.3 0 5 0 C4.814375 0.94875 4.62875 1.8975 4.4375 2.875 C3.71313368 5.89868793 3.71313368 5.89868793 5 8 C3.35 8 1.7 8 0 8 C0 5.36 0 2.72 0 0 Z " fill="#3836DA" transform="translate(2570,1209)"/>
</svg>
