<?xml version="1.0" encoding="UTF-8"?>
<svg version="1.1" xmlns="http://www.w3.org/2000/svg" width="2816" height="2993">
<path d="M0 0 C929.28 0 1858.56 0 2816 0 C2816 987.69 2816 1975.38 2816 2993 C1886.72 2993 957.44 2993 0 2993 C0 2005.31 0 1017.62 0 0 Z " fill="#000000" transform="translate(0,0)"/>
<path d="M0 0 C22.54763871 4.30332667 43.96880283 13.05939746 65 22 C66.52995605 22.63929443 66.52995605 22.63929443 68.09082031 23.29150391 C91.75626871 33.18984828 115.86495766 44.40753691 137.19238281 58.78564453 C139.20560014 60.13812198 141.23831138 61.45807979 143.2734375 62.77734375 C169.77689356 80.0623313 193.77568752 99.78736918 216.21429443 122.04006958 C217.21991966 123.03700185 218.22690912 124.0325603 219.2354126 125.02658081 C225.96240531 131.66829861 232.11995034 138.59590145 238 146 C238.97646255 147.17391686 239.95635066 148.3450031 240.94140625 149.51171875 C254.58391919 165.92209259 266.18595659 184.06940329 276 203 C276.53246338 204.0194873 276.53246338 204.0194873 277.07568359 205.05957031 C284.45297596 219.25737826 291.00042236 233.78605347 296 249 C296.20334961 249.61858887 296.40669922 250.23717773 296.61621094 250.87451172 C306.82930588 282.4299478 309.49223168 314.55072861 309.30418181 347.5121026 C309.28504982 351.45042398 309.28363655 355.38875724 309.28010559 359.32711792 C309.2708898 366.73887972 309.24642268 374.15050408 309.21605712 381.56220615 C309.18218099 390.01970236 309.16594484 398.47720617 309.15097082 406.93475366 C309.11985983 424.28991443 309.06731018 441.64494255 309 459 C308.05125 458.979375 307.1025 458.95875 306.125 458.9375 C303.09333717 458.77448174 303.09333717 458.77448174 301 460 C300.99503478 458.90615148 300.99503478 458.90615148 300.98996925 457.790205 C300.9085196 439.99325796 300.81635651 422.19639536 300.71247292 404.39956474 C300.66248888 395.79292426 300.61604514 387.18629263 300.578125 378.57958984 C300.54503972 371.07233767 300.50511907 363.5651572 300.45720994 356.05798447 C300.43210814 352.08813781 300.41028008 348.1183377 300.39665604 344.14843369 C300.38368576 340.400644 300.36147574 336.65301533 300.33261681 332.9053154 C300.31943137 330.89701215 300.31564872 328.8886538 300.31230164 326.88031006 C300.23569697 318.43389398 299.35961632 310.33113856 298 302 C297.78163568 300.45249577 297.56682476 298.90447389 297.359375 297.35546875 C291.36494599 255.44388391 275.76409494 216.57113891 253 181 C252.00226563 179.42025391 252.00226563 179.42025391 250.984375 177.80859375 C238.08956856 157.89749558 222.33534729 140.11833856 206 123 C205.175 122.13246094 204.35 121.26492187 203.5 120.37109375 C198.85900194 115.60578325 193.92286964 111.38829572 188.73046875 107.234375 C186.18699831 105.15302294 183.78042747 102.98798685 181.375 100.75 C142.64634037 65.75567458 93.56249386 41.02602029 45.24975586 22.26538086 C42.33563813 21.13068984 39.43391933 19.97008636 36.53515625 18.796875 C24.64685988 14.03058264 12.29662642 10.53697333 0 7 C0 4.69 0 2.38 0 0 Z " fill="#F16A44" transform="translate(857,7)"/>
<path d="M0 0 C4.55555556 0.55555556 4.55555556 0.55555556 6 2 C6.10895844 4.68231142 6.15224564 7.33926187 6.15390015 10.02246094 C6.16047353 11.29963737 6.16047353 11.29963737 6.1671797 12.60261536 C6.18062236 15.47987071 6.18675943 18.35709538 6.19287109 21.234375 C6.20076943 23.28932841 6.20903821 25.34428042 6.21765137 27.39923096 C6.24396062 34.18280703 6.25921419 40.96638944 6.2734375 47.75 C6.27879853 50.09228519 6.28417604 52.43457035 6.28956985 54.77685547 C6.31123504 64.54414332 6.32995811 74.3114295 6.34119225 84.07873535 C6.35733069 98.01637685 6.39021724 111.95373498 6.44759309 125.89126968 C6.48662804 135.71507872 6.50586564 145.53881317 6.51111281 155.3626976 C6.51472838 161.21177593 6.52633209 167.06055274 6.55921555 172.9095459 C6.73498345 205.79293556 5.38261436 237.22410447 -4 269 C-4.30421875 270.04542969 -4.6084375 271.09085938 -4.921875 272.16796875 C-13.13630798 298.28842448 -25.33680358 325.51832793 -41 348 C-41.43812012 348.63599121 -41.87624023 349.27198242 -42.32763672 349.92724609 C-48.2583264 358.52508405 -54.28914439 366.98779977 -61 375 C-61.41604492 375.49951172 -61.83208984 375.99902344 -62.26074219 376.51367188 C-65.47566415 380.36972658 -68.72489819 384.19495833 -72 388 C-72.70640625 388.82113281 -73.4128125 389.64226563 -74.140625 390.48828125 C-78.91951978 395.91469804 -83.9636366 401.06399591 -89.0625 406.1875 C-89.72338623 406.85305908 -90.38427246 407.51861816 -91.06518555 408.2043457 C-95.54755633 412.67227336 -100.20485862 416.87210561 -105 421 C-106.0598442 421.93739019 -107.11851407 422.87611046 -108.17578125 423.81640625 C-117.66887997 432.16726307 -127.74120725 439.62186441 -138 447 C-138.91265625 447.66644531 -139.8253125 448.33289062 -140.765625 449.01953125 C-153.52569653 458.18804418 -167.09141966 466.35956713 -180.90185547 473.83642578 C-183.19232935 475.10666066 -185.43976244 476.43958352 -187.69140625 477.77734375 C-197.8106268 483.64049434 -205.19877707 486.58760847 -217 485 C-213.12007748 481.70890041 -208.60717329 479.75912845 -204.0625 477.5625 C-180.14237829 465.78071897 -157.53366127 451.82383144 -136.2890625 435.72607422 C-134.08061933 434.06079124 -131.85570992 432.42043976 -129.625 430.78515625 C-119.68362186 423.43214652 -110.72368129 415.33903812 -101.83740234 406.75195312 C-99.4056363 404.43327745 -96.90055167 402.21606651 -94.375 400 C-90.90743552 396.90604516 -87.81093219 393.68287523 -84.8203125 390.12890625 C-82.74426229 387.70090762 -80.560672 385.39224363 -78.375 383.0625 C-72.30872164 376.40618849 -66.90324003 369.27945714 -61.53125 362.05761719 C-60.57758748 360.77613318 -59.61994607 359.4975886 -58.65625 358.22363281 C-39.9618947 333.49742693 -25.20849333 304.58138236 -16 275 C-15.52900687 273.54763669 -15.05637806 272.0958027 -14.58203125 270.64453125 C-10.03301813 256.59730941 -7.00760022 242.61183247 -5 228 C-4.83491188 226.84356963 -4.66982376 225.68713926 -4.49973297 224.49566555 C-2.93920223 212.94763283 -2.70585551 201.55579806 -2.71289062 189.91625977 C-2.70685134 187.85790744 -2.69992334 185.79955757 -2.69218445 183.74121094 C-2.67741565 179.34672394 -2.66857709 174.95228144 -2.66447449 170.55777168 C-2.65771269 163.61219447 -2.6359088 156.66671235 -2.61193848 149.72117615 C-2.55904892 133.74673078 -2.52536214 117.77225638 -2.49217987 101.79776001 C-2.46150233 87.10669766 -2.42677661 72.41567695 -2.37586927 57.72466892 C-2.352493 50.81494882 -2.33877392 43.90529651 -2.33237457 36.99554074 C-2.32645795 32.71470901 -2.31238335 28.43393295 -2.29603004 24.15312958 C-2.29013093 22.16245429 -2.28768658 20.17176545 -2.28886986 18.18108177 C-2.29002076 15.47412222 -2.27908019 12.76747889 -2.26501465 10.06056213 C-2.26996311 8.86688242 -2.26996311 8.86688242 -2.27501154 7.64908797 C-2.2281893 2.2281893 -2.2281893 2.2281893 0 0 Z " fill="#A085ED" transform="translate(1160,2503)"/>
<path d="M0 0 C0 1.98 0 3.96 0 6 C-3.90375636 7.35977595 -7.74340657 8.45355517 -11.7890625 9.296875 C-13.43346313 9.64685547 -13.43346313 9.64685547 -15.11108398 10.00390625 C-16.27067627 10.25011719 -17.43026855 10.49632812 -18.625 10.75 C-29.47238741 13.10746499 -40.04540045 15.90424848 -50.62158203 19.25878906 C-53.04056184 20.01264071 -55.46811038 20.7267538 -57.90234375 21.4296875 C-74.60279418 26.26623254 -91.09104166 31.9599418 -107 39 C-108.06951904 39.47324707 -108.06951904 39.47324707 -109.16064453 39.95605469 C-114.2955413 42.23429385 -119.41509798 44.54475721 -124.52636719 46.87548828 C-126.76617629 47.89370391 -129.0112722 48.89910152 -131.2578125 49.90234375 C-165.6140842 65.43936149 -197.10178959 86.94484147 -226 111 C-226.95132812 111.76441406 -227.90265625 112.52882813 -228.8828125 113.31640625 C-237.52569262 120.37634628 -245.41241981 128.1959505 -253.3125 136.0625 C-253.87212433 136.61694794 -254.43174866 137.17139587 -255.0083313 137.74264526 C-262.14824515 144.83049738 -268.7414633 152.10839439 -275 160 C-276.50343779 161.79466338 -278.0073495 163.58892984 -279.51171875 165.3828125 C-284.33798129 171.28820683 -288.61551733 177.51339193 -292.8125 183.875 C-293.19985321 184.45926758 -293.58720642 185.04353516 -293.98629761 185.64550781 C-314.46012068 216.57995276 -329.40545785 248.82584838 -338 285 C-338.47566406 286.91619141 -338.47566406 286.91619141 -338.9609375 288.87109375 C-342.87851451 305.02625045 -344.11693433 321.08177288 -344.2109375 337.6640625 C-344.22393694 339.03218358 -344.23775683 340.40029709 -344.25234985 341.7684021 C-344.31330871 347.51855184 -344.36830982 353.26865838 -344.40136719 359.01904297 C-344.42225384 362.56030821 -344.45746667 366.10118153 -344.50212479 369.64222336 C-344.52315757 371.63750724 -344.52833313 373.63293785 -344.53329468 375.62832642 C-344.54986115 376.83072968 -344.56642761 378.03313293 -344.58349609 379.27197266 C-344.59158295 380.33276031 -344.5996698 381.39354797 -344.60800171 382.48648071 C-344.73736115 383.31594208 -344.86672058 384.14540344 -345 385 C-348 387 -348 387 -350.0625 386.8125 C-352 386 -352 386 -354 383 C-354.27415466 380.71754456 -354.27415466 380.71754456 -354.30639648 377.99829102 C-354.32215729 376.97226776 -354.33791809 375.94624451 -354.35415649 374.88912964 C-354.35974579 373.77200592 -354.36533508 372.6548822 -354.37109375 371.50390625 C-354.38216156 370.33973175 -354.39322937 369.17555725 -354.40463257 367.97610474 C-354.4317806 364.17143896 -354.43788658 360.36725875 -354.4375 356.5625 C-354.43889984 355.27179596 -354.44029968 353.98109192 -354.44174194 352.65127563 C-354.42270775 331.37187241 -353.18026578 310.8689009 -349 290 C-348.80245117 288.99984863 -348.60490234 287.99969727 -348.40136719 286.96923828 C-347.21722872 281.21727035 -345.72858476 275.61053755 -344 270 C-343.58476074 268.62690674 -343.58476074 268.62690674 -343.16113281 267.22607422 C-324.74935024 207.1240445 -286.42212616 148.17884466 -236.609375 109.05078125 C-233.84095323 106.87500067 -231.17617789 104.60055817 -228.5 102.3125 C-206.75144146 84.21658399 -182.85900703 68.45864456 -158 55 C-156.95875977 54.42958984 -155.91751953 53.85917969 -154.84472656 53.27148438 C-128.16392064 38.73251433 -100.30437295 26.7838474 -71.28466797 17.74267578 C-69.18688854 17.06075176 -67.14088311 16.30809354 -65.0859375 15.5078125 C-59.94933207 13.54290621 -54.66975231 12.09761197 -49.375 10.625 C-47.74195923 10.16927612 -47.74195923 10.16927612 -46.07592773 9.7043457 C-35.46207737 6.78378698 -24.76994888 4.27240171 -14 2 C-13.10651855 1.80873535 -12.21303711 1.6174707 -11.29248047 1.42041016 C-10.41092285 1.23655762 -9.52936523 1.05270508 -8.62109375 0.86328125 C-7.83017334 0.69739502 -7.03925293 0.53150879 -6.22436523 0.3605957 C-4 0 -4 0 0 0 Z " fill="#9D83E9" transform="translate(1953,0)"/>
<path d="M0 0 C12.81230295 -1.47205183 19.7265085 1.72176946 30 9 C31.09054687 9.73089844 32.18109375 10.46179688 33.3046875 11.21484375 C36.57451369 13.42537417 39.79425117 15.69829291 43 18 C43.58217285 18.41475586 44.1643457 18.82951172 44.76416016 19.25683594 C54.21122584 26.00147751 63.27002526 33.15329877 72.22070312 40.54101562 C73.76542096 41.80765033 75.32662438 43.05412856 76.890625 44.296875 C88.67605616 53.68287706 99.39528005 64.31948093 110.0625 74.9375 C110.75230957 75.62263672 111.44211914 76.30777344 112.15283203 77.01367188 C116.63806394 81.5130872 120.86162775 86.1815174 125 91 C125.94962543 92.08281717 126.90009825 93.16489198 127.8515625 94.24609375 C145.45462947 114.42085388 160.72566036 136.2715998 173.71630859 159.68798828 C174.56351675 161.21386527 175.41788009 162.7357942 176.27978516 164.25341797 C186.51195928 182.30811477 193.68094106 201.50964623 199.375 221.4375 C199.68453613 222.49308105 199.99407227 223.54866211 200.31298828 224.63623047 C207.66351587 251.62813519 207.55376839 278.58879553 207.40557575 306.3253839 C207.38022749 311.88660522 207.3781942 317.44783932 207.37347412 323.0091095 C207.36114101 333.49496002 207.3284531 343.98063972 207.28807616 354.4664157 C207.2430539 366.42325926 207.22129556 378.38011184 207.20129442 390.33701932 C207.1597096 414.89144018 207.08954978 439.44571044 207 464 C206.236875 463.938125 205.47375 463.87625 204.6875 463.8125 C201.95474688 463.74101915 201.95474688 463.74101915 200.1875 465.5 C199.795625 465.995 199.40375 466.49 199 467 C198.99853344 465.99598554 198.99706688 464.99197107 198.99555588 463.95753193 C198.95877073 439.3956951 198.89907547 414.83399263 198.81609726 390.27226734 C198.77648447 378.39383058 198.74400258 366.51545836 198.72900391 354.63696289 C198.71589447 344.2696198 198.68869682 333.90241981 198.64538693 323.53515738 C198.62297858 318.05851526 198.60707671 312.58204824 198.60811615 307.10535622 C198.6074528 278.62561309 198.23562165 251.50437355 190 224 C189.47469912 222.13145853 188.95298595 220.26189796 188.4375 218.390625 C188.19773437 217.53339844 187.95796875 216.67617187 187.7109375 215.79296875 C187.23292622 214.08315916 186.75903346 212.37219332 186.2890625 210.66015625 C184.58095446 204.58994436 182.44528134 198.80993116 180 193 C179.566875 191.95150879 179.566875 191.95150879 179.125 190.88183594 C166.78264494 161.29732515 149.5375419 133.58943605 129 109 C128.58540527 108.50193848 128.17081055 108.00387695 127.74365234 107.49072266 C118.09510796 95.91871891 108.04321678 84.85643521 97.38964844 74.2043457 C95.62924948 72.44175477 93.87703618 70.67128961 92.125 68.90039062 C86.11710041 62.86331418 80.04792315 57.16126098 73.35449219 51.88085938 C71.02704457 50.02160425 68.82122918 48.07409397 66.625 46.0625 C61.01225796 41.0337999 55.03640613 36.50099206 49 32 C48.32259766 31.49275391 47.64519531 30.98550781 46.94726562 30.46289062 C32.03745366 19.34485646 16.5180255 9.55085066 0 1 C0 0.67 0 0.34 0 0 Z " fill="#3534D5" transform="translate(1048,0)"/>
<path d="M0 0 C2.97 0 5.94 0 9 0 C9.00331015 0.77377235 9.00662029 1.54754471 9.01003075 2.34476471 C9.09150854 21.23563062 9.18368046 40.12641723 9.28752708 59.01717377 C9.33749431 68.15287122 9.38393804 77.28856042 9.421875 86.42431641 C9.45497798 94.39377222 9.49490793 102.36316073 9.54279006 110.33254194 C9.56787456 114.54613883 9.58970738 118.75969212 9.60334396 122.9733429 C9.61633036 126.95259241 9.63855643 130.93169098 9.66738319 134.91085625 C9.67633134 136.3586455 9.68211864 137.80645897 9.68421364 139.25427437 C9.77065523 189.9927466 28.55170629 241.39168573 57 283 C57.45149414 283.6609668 57.90298828 284.32193359 58.36816406 285.00292969 C63.59224889 292.58727064 69.1171933 299.91241185 75 307 C75.61246582 307.73984131 75.61246582 307.73984131 76.23730469 308.49462891 C88.82900346 323.66720589 101.96282485 338.64245662 117.44140625 350.9375 C119.75447699 352.80208221 121.94089124 354.73776928 124.125 356.75 C152.20434871 381.78578294 185.69928936 400.01167066 219 417 C219 417.33 219 417.66 219 418 C206.50651671 419.29242931 198.61047692 416.25070629 188 410 C185.84906733 408.76413321 183.69801643 407.52847215 181.546875 406.29296875 C154.95206044 390.9184352 128.77936457 373.3305425 106.5 352.0625 C105.20132436 350.83378559 103.90184522 349.60591985 102.6015625 348.37890625 C101.98313477 347.79512207 101.36470703 347.21133789 100.72753906 346.60986328 C98.48725878 344.52218547 96.18361628 342.51157933 93.875 340.5 C83.95921751 331.6236423 75.23114141 321.4278769 67 311 C65.91940877 309.66134697 64.83866801 308.32281465 63.7578125 306.984375 C55.33699993 296.4624448 47.90140969 285.57098228 41 274 C40.40759521 273.01580078 40.40759521 273.01580078 39.80322266 272.01171875 C29.81780264 255.30160053 21.03808707 237.51384049 15 219 C14.35611084 217.29142455 13.71150231 215.58312013 13.06640625 213.875 C10.90841736 207.96676827 9.36271736 201.99608916 7.9375 195.875 C7.68000977 194.7811499 7.42251953 193.6872998 7.15722656 192.56030273 C5.11156031 183.7404736 3.37100749 174.9484351 2 166 C1.72641159 164.25518845 1.72641159 164.25518845 1.44729614 162.47512817 C-0.59865277 147.14395471 -0.25859176 131.72294495 -0.20278788 116.28940344 C-0.19013497 112.18953471 -0.18909871 108.08966185 -0.18673706 103.98977661 C-0.18056448 96.25550116 -0.16421194 88.52128343 -0.14403808 80.7870332 C-0.12154623 71.96937937 -0.11065252 63.15172253 -0.10064721 54.33404708 C-0.07984106 36.22266554 -0.04474885 18.11133744 0 0 Z " fill="#3534D5" transform="translate(1599,2570)"/>
<path d="M0 0 C-2.12599232 2.12599232 -3.76919103 2.93870659 -6.48828125 4.1796875 C-7.87261353 4.82103638 -7.87261353 4.82103638 -9.28491211 5.4753418 C-10.28401611 5.937229 -11.28312012 6.39911621 -12.3125 6.875 C-42.46471807 21.10695964 -71.91253754 39.35096426 -96.19140625 62.3671875 C-98.36643963 64.40609223 -100.56558664 66.36892988 -102.8203125 68.31640625 C-114.22353569 78.25071689 -124.76040645 89.08616659 -133.72607422 101.27294922 C-135.03022745 103.04097911 -136.35863842 104.7886222 -137.69140625 106.53515625 C-158.6332881 134.21249092 -173.97068858 164.81985665 -182.375 198.5625 C-182.60171387 199.45702881 -182.82842773 200.35155762 -183.06201172 201.27319336 C-188.48282936 224.60636666 -188.91681073 248.80297909 -190.00195312 272.62817383 C-190.32804989 279.74212994 -190.67168543 286.85526771 -191.0132103 293.96849632 C-191.12958992 296.42038782 -191.24210173 298.87243006 -191.35379028 301.32453918 C-191.54839393 305.55097989 -191.76817262 309.77543072 -192 314 C-192.05637634 315.11829193 -192.11275269 316.23658386 -192.1708374 317.38876343 C-192.2354718 318.3641507 -192.3001062 319.33953796 -192.36669922 320.34448242 C-192.41688202 321.16099777 -192.46706482 321.97751312 -192.51876831 322.81877136 C-193.10276146 325.46577615 -194.25508773 326.95804608 -196 329 C-197.65 328.67 -199.3 328.34 -201 328 C-202.28514543 323.22520906 -201.96141489 318.71085368 -201.70214844 313.82958984 C-201.65834549 312.91328293 -201.61454254 311.99697601 -201.56941223 311.05290222 C-201.4225992 308.02188525 -201.26643736 304.99143951 -201.109375 301.9609375 C-201.00277663 299.83884945 -200.89643717 297.71674839 -200.79034424 295.59463501 C-200.56589053 291.13740156 -200.33650038 286.68045367 -200.10400391 282.22363281 C-199.80939771 276.56398651 -199.52956899 270.90372323 -199.25396347 265.24312401 C-199.0379713 260.85158199 -198.81249101 256.46056257 -198.58448029 252.06962967 C-198.47767132 249.98659918 -198.3739915 247.90340543 -198.27373505 245.82004929 C-197.44109967 228.65843649 -195.69573434 211.86283209 -191.125 195.25 C-190.86162842 194.27595215 -190.59825684 193.3019043 -190.3269043 192.29833984 C-189.56767445 189.52727716 -188.78925084 186.76264226 -188 184 C-187.80712402 183.31518555 -187.61424805 182.63037109 -187.41552734 181.92480469 C-176.62319065 144.39577424 -154.26892525 110.48551319 -128 82 C-126.5200276 80.33404877 -125.04086992 78.66737344 -123.5625 77 C-112.11247612 64.29326618 -99.4200621 53.52355174 -86 43 C-85.37593262 42.50838379 -84.75186523 42.01676758 -84.10888672 41.51025391 C-67.82778196 28.75423238 -50.26865108 17.77221845 -32.00488281 8.08740234 C-30.0854659 7.04635474 -28.21104338 5.95045271 -26.3359375 4.83203125 C-17.28165558 -0.28782794 -10.10824472 -0.8270382 0 0 Z " fill="#079764" transform="translate(1733,0)"/>
<path d="M0 0 C2.97 0 5.94 0 9 0 C9.00331015 0.73455382 9.00662029 1.46910765 9.01003075 2.22592068 C9.09176285 20.21866323 9.1840121 38.2113249 9.28752708 56.20395565 C9.33734354 64.90556576 9.38378582 73.60716788 9.421875 82.30883789 C9.45513817 89.90592115 9.49514929 97.50293606 9.54279006 105.09994322 C9.56771986 109.11094083 9.58959335 113.12189512 9.60334396 117.13294792 C9.7663576 162.87337406 15.22181706 203.68383767 33 246 C33.34401855 246.82258301 33.68803711 247.64516602 34.04248047 248.49267578 C46.70852367 278.4837403 64.83258323 306.1545716 87 330 C88.08719295 331.26753302 89.17062105 332.53830631 90.25 333.8125 C94.17188206 338.3398983 98.45676279 342.50768603 102.73339844 346.6965332 C104.17276786 348.11379411 105.58872076 349.55476517 107 351 C107 351.33 107 351.66 107 352 C103.04270169 353.017591 99.96268168 353.05085133 96 352 C90.55820125 348.27850203 86.25880547 342.97448329 82 338 C81.54286621 337.46745605 81.08573242 336.93491211 80.61474609 336.38623047 C78.75090804 334.18995135 76.93593677 331.96335251 75.16015625 329.6953125 C73.37335168 327.46584567 71.53612323 325.33882915 69.63671875 323.20703125 C66.0811353 319.16489427 62.87838758 314.94039581 59.75 310.5625 C59.19207764 309.78390625 58.63415527 309.0053125 58.05932617 308.203125 C34.48407639 275.05116223 16.07980265 237.81862939 7 198 C6.82130371 197.25492188 6.64260742 196.50984375 6.45849609 195.7421875 C0.09442644 168.975152 -0.45725284 141.53598181 -0.30418181 114.17321134 C-0.28497456 110.13615682 -0.28363095 106.09908962 -0.28010559 102.06199646 C-0.27091075 94.47332249 -0.24647415 86.88478365 -0.21605712 79.29616827 C-0.18211301 70.63299745 -0.16592831 61.96981896 -0.15097082 53.30659783 C-0.11990767 35.53765627 -0.06740195 17.76883913 0 0 Z " fill="#E4F058" transform="translate(1531,2636)"/>
<path d="M0 0 C3.86313738 -0.7270924 7.14793982 -0.86035862 11 0 C15.00877223 3.13111204 17.91653643 6.9798521 21 11 C22.39478128 12.64672501 23.79060965 14.2925637 25.1875 15.9375 C50.51902065 47.33241655 72.08198802 81.57530145 85.26806641 119.89501953 C85.9168721 121.76093104 86.60230027 123.61401916 87.29296875 125.46484375 C99.84416382 160.27511617 102.60983867 197.1012691 102.67336798 233.77142978 C102.68420798 237.90906351 102.71571768 242.04655415 102.74417114 246.18409729 C102.7886939 253.08731555 102.81876725 259.99046846 102.83886719 266.89379883 C102.86220894 274.86928396 102.90649618 282.84444695 102.96193302 290.81976932 C103.01545739 298.55171853 103.05755176 306.28368307 103.09332657 314.01573372 C103.10849282 317.28805302 103.12714739 320.56032477 103.14852524 323.83260918 C103.17279904 327.65869683 103.18691486 331.48468971 103.19298744 335.31084824 C103.19678216 336.71458736 103.20401273 338.11832188 103.21486855 339.52202415 C103.22903977 341.43097243 103.22964206 343.34000732 103.22946167 345.24900818 C103.23348433 346.3178295 103.23750698 347.38665083 103.24165154 348.48786068 C103 351 103 351 101 353 C98.375 353.125 98.375 353.125 96 353 C95.67 351.68 95.34 350.36 95 349 C94.34 349 93.68 349 93 349 C92.99780016 347.83135926 92.99780016 347.83135926 92.99555588 346.63910961 C92.95826532 327.55240111 92.89896118 308.46587228 92.81609726 289.37930584 C92.77653599 280.14862013 92.74402858 270.91801684 92.72900391 261.68725586 C92.71586707 253.62791856 92.68860275 245.56876439 92.64538693 237.50953037 C92.62303806 233.25472553 92.60707294 229.00014422 92.60811615 224.7452755 C92.60772428 204.7867663 91.74972348 185.67851986 88 166 C87.80123009 164.95515127 87.60246017 163.91030254 87.39766693 162.83379173 C83.26453488 141.43893674 76.65432464 120.98783647 68 101 C67.46947021 99.77410156 67.46947021 99.77410156 66.92822266 98.5234375 C52.29663104 65.25856283 31.31001928 36.42001371 7.65625 9.0859375 C5.06517036 6.08904907 2.5280752 3.05017769 0 0 Z " fill="#079563" transform="translate(1247,0)"/>
<path d="M0 0 C1.99954746 -0.04254356 4.00041636 -0.04080783 6 0 C7 1 7 1 7.04354858 2.78591919 C7.00516876 3.56313324 6.96678894 4.34034729 6.92724609 5.14111328 C6.88604645 6.01766571 6.8448468 6.89421814 6.80239868 7.79733276 C6.75159149 8.75366608 6.7007843 9.70999939 6.6484375 10.6953125 C6.57476456 12.17803146 6.57476456 12.17803146 6.49960327 13.69070435 C1.88804356 104.25190199 1.88804356 104.25190199 -14 140 C-14.61430752 141.53318912 -15.22318598 143.06855906 -15.828125 144.60546875 C-28.81447367 177.1661313 -46.65081513 207.74649753 -70 234 C-71.20856432 235.39563334 -72.41692613 236.7914421 -73.625 238.1875 C-74.74932381 239.4589316 -75.87433574 240.72975501 -77 242 C-77.60328125 242.69609375 -78.2065625 243.3921875 -78.828125 244.109375 C-88.80082404 255.45236856 -99.42160166 266.55972106 -111.3203125 275.890625 C-113.91071643 277.92971847 -116.42407467 280.0345735 -118.92871094 282.17700195 C-120.59179697 283.596657 -122.26753075 285.00011192 -123.9453125 286.40234375 C-125.81820768 287.97384688 -127.59341673 289.5650189 -129.3671875 291.25390625 C-133.90875578 295.37126211 -136.86008157 296.4107366 -143.0625 296.4375 C-145.04391355 296.32628664 -147.0248095 296.19232921 -149 296 C-148.33226562 295.46761719 -147.66453125 294.93523438 -146.9765625 294.38671875 C-141.98577336 290.38491801 -137.02722972 286.34353336 -132.06640625 282.3046875 C-129.70640313 280.38374204 -127.34045562 278.47202496 -124.96484375 276.5703125 C-113.73428081 267.53955055 -103.47579429 257.57555765 -93.25 247.4375 C-92.3748877 246.57543945 -91.49977539 245.71337891 -90.59814453 244.82519531 C-84.62972561 238.86467561 -79.23501947 232.60942886 -74 226 C-73.40413086 225.26338135 -72.80826172 224.5267627 -72.19433594 223.76782227 C-50.13856901 196.48680166 -32.9809696 165.97771901 -21 133 C-20.69731201 132.21069092 -20.39462402 131.42138184 -20.08276367 130.6081543 C-17.51904391 123.81195298 -15.59600372 117.00513985 -13.9375 109.9375 C-13.57301758 108.44959961 -13.57301758 108.44959961 -13.20117188 106.93164062 C-9.06082177 89.54656312 -7.23570246 72.16733891 -5.875 54.375 C-5.62211858 51.15426743 -5.36702707 47.93372214 -5.11038208 44.71328735 C-4.95301511 42.73007651 -4.79812573 40.74666685 -4.64620972 38.76303101 C-4.33101577 34.71895234 -3.98638401 30.69366179 -3.46557617 26.67041016 C-3.08099063 23.6384967 -2.81704335 20.67527648 -2.68359375 17.625 C-2.64169922 16.70332031 -2.59980469 15.78164062 -2.55664062 14.83203125 C-2.51732422 13.89746094 -2.47800781 12.96289062 -2.4375 12 C-2.37272461 10.55173828 -2.37272461 10.55173828 -2.30664062 9.07421875 C-2.20158287 6.71625575 -2.09943086 4.35820584 -2 2 C-1.34 2 -0.68 2 0 2 C0 1.34 0 0.68 0 0 Z " fill="#079865" transform="translate(1274,2692)"/>
<path d="M0 0 C2.97 0 5.94 0 9 0 C9.06839205 33.58096284 9.12150536 67.16190639 9.15319599 100.74292337 C9.15694825 104.70467364 9.1608312 108.66642377 9.16479492 112.62817383 C9.16558185 113.4169092 9.16636878 114.20564457 9.16717956 115.01828101 C9.18024454 127.80059855 9.20390437 140.58287574 9.23145839 153.36516932 C9.25948225 166.47445515 9.27616985 179.5837198 9.28226548 192.69303435 C9.28638821 200.78655494 9.29942389 208.87996149 9.3237494 216.97344699 C9.34143563 223.17255186 9.34337328 229.37156922 9.33932304 235.57069588 C9.34015152 238.11889602 9.34616024 240.66710029 9.35761642 243.21527481 C9.37244635 246.68260357 9.36898821 250.14943632 9.36076355 253.61677551 C9.36950207 254.63524734 9.3782406 255.65371916 9.38724393 256.70305377 C9.38127078 257.62864335 9.37529764 258.55423293 9.36914349 259.50787067 C9.37028265 260.30870085 9.37142181 261.10953103 9.37259549 261.93462878 C8.90392901 264.53254067 8.10838271 265.44854669 6 267 C3.375 266.8125 3.375 266.8125 1 266 C-0.17762297 263.64475405 -0.12429231 262.25677629 -0.12304783 259.6309185 C-0.12503888 258.70731997 -0.12702993 257.78372144 -0.12908131 256.83213508 C-0.12616847 255.81075041 -0.12325563 254.78936575 -0.12025452 253.73703003 C-0.12110894 252.65726336 -0.12196337 251.57749668 -0.12284368 250.46500981 C-0.12449951 246.82284808 -0.11897541 243.18073175 -0.11352539 239.53857422 C-0.11324352 236.93732708 -0.11340126 234.33607986 -0.1139679 231.73483276 C-0.11449301 226.12215576 -0.11134752 220.50949034 -0.10573006 214.89681625 C-0.09761336 206.78176786 -0.09499966 198.66672509 -0.09374207 190.55167307 C-0.09155181 177.38649631 -0.08489245 164.22132574 -0.07543945 151.05615234 C-0.06626465 138.26513703 -0.05918415 125.4741234 -0.05493164 112.68310547 C-0.05466892 111.89506408 -0.05440619 111.1070227 -0.05413551 110.29510127 C-0.0528305 106.34184774 -0.05156678 102.38859419 -0.05032361 98.43534064 C-0.03995183 65.62355588 -0.02226006 32.81177887 0 0 Z " fill="#E1EE57" transform="translate(1397,0)"/>
<path d="M0 0 C4.55555556 0.55555556 4.55555556 0.55555556 6 2 C7.14233002 7.95020353 7.14503631 13.8159012 7.1418457 19.859375 C7.14532013 20.93226273 7.14879456 22.00515045 7.15237427 23.11054993 C7.15971095 25.43706752 7.16506742 27.76359203 7.16866493 30.09011841 C7.17588663 33.80419395 7.19160328 37.51814161 7.21000671 41.23217773 C7.26215175 51.7923149 7.31023423 62.35233866 7.32592773 72.91259766 C7.26652639 114.13270834 7.26652639 114.13270834 12 155 C12.41540113 157.53590608 12.82784708 160.07229775 13.23754883 162.60913086 C16.71361672 184.06920167 22.26097039 204.39019632 29.4375 224.875 C29.70836426 225.64915253 29.97922852 226.42330505 30.25830078 227.22091675 C34.15375096 238.30014785 38.43379242 249.18065102 43 260 C40.03 260 37.06 260 34 260 C29.36573287 250.45724875 25.26352375 240.85873175 21.68212891 230.87304688 C21.06639682 229.18231798 20.41608039 227.50428163 19.76171875 225.828125 C15.50934618 214.69161833 12.77254658 203.11320104 9.89550781 191.5612793 C9.27476532 189.09269402 8.63754631 186.62821588 7.98730469 184.16723633 C5.67185331 175.34559056 3.94791287 166.55988607 2.671875 157.5300293 C2.37823353 155.46029163 2.06900364 153.39333511 1.7578125 151.32617188 C-1.33937354 130.27657596 -2.30679745 109.36500989 -2.265625 88.10546875 C-2.26697619 85.60964419 -2.26892047 83.11381989 -2.27142334 80.61799622 C-2.2743418 75.44395385 -2.27017633 70.2699814 -2.26074219 65.09594727 C-2.2515321 59.78600159 -2.25115677 54.47619518 -2.26074219 49.16625977 C-2.27229721 42.70772678 -2.27417722 36.249275 -2.26763153 29.79073524 C-2.26629664 27.33902276 -2.26793715 24.8873068 -2.27259064 22.43559837 C-2.2776405 19.03533906 -2.26997311 15.63534669 -2.25878906 12.23510742 C-2.26283752 11.22179855 -2.26688599 10.20848969 -2.27105713 9.16447449 C-2.26541748 8.24416443 -2.25977783 7.32385437 -2.25396729 6.37565613 C-2.25321323 5.57407168 -2.25245918 4.77248724 -2.25168228 3.94661236 C-2 2 -2 2 0 0 Z " fill="#079463" transform="translate(1475,2728)"/>
<path d="M0 0 C2.625 0.375 2.625 0.375 5 1 C5.84416623 5.00978957 5.99609288 8.30113049 5.67016602 12.36547852 C5.59579819 13.29561264 5.52143036 14.22574677 5.44480896 15.18406677 C5.36118607 16.2177388 5.27756317 17.25141083 5.19140625 18.31640625 C5.10323135 19.41255753 5.01505646 20.5087088 4.92420959 21.63807678 C4.20246074 30.57515339 3.46320336 39.51075456 2.72095871 48.44614792 C2.52592243 50.79445703 2.33111849 53.14278531 2.13638306 55.49111938 C2.00433363 57.08327231 1.87228407 58.67542522 1.74023438 60.26757812 C1.64153329 61.45786653 1.64153329 61.45786653 1.54083824 62.67220116 C1.20472858 66.72370306 0.86772195 70.77512722 0.52905273 74.82641602 C0.19391738 78.83622975 -0.13875886 82.84624135 -0.46990776 86.85638618 C-0.5938014 88.35155992 -0.71853114 89.84666468 -0.84422493 91.34168816 C-1.58612021 100.17154569 -2.21081664 108.99623694 -2.64199162 117.8473196 C-3.55908764 135.96816819 -7.68608188 153.36878496 -13.4375 170.5 C-13.66620789 171.18401886 -13.89491577 171.86803772 -14.1305542 172.57278442 C-21.34568525 193.93239474 -31.60029199 214.90398682 -44.76611328 233.25048828 C-46.05387349 235.07638652 -47.2743314 236.9380236 -48.49609375 238.80859375 C-54.41500456 247.55272731 -54.41500456 247.55272731 -58.8515625 248.8046875 C-61.37695582 248.81180128 -63.55441356 248.60879492 -66 248 C-62.76038374 242.90353052 -59.3082052 238.12548858 -55.5 233.4375 C-43.21015822 217.82460282 -34.37795232 199.73507616 -26.97070312 181.3984375 C-26.15430094 179.38125062 -25.30722114 177.37651823 -24.453125 175.375 C-21.89973627 169.19642973 -20.04934763 162.89909332 -18.375 156.4375 C-18.18059326 155.70120361 -17.98618652 154.96490723 -17.78588867 154.20629883 C-13.04676794 134.95802292 -11.94987742 115.06401737 -10.43762207 95.36862183 C-10.05908187 90.43915253 -9.66908578 85.51063315 -9.27636719 80.58227539 C-9.2110914 79.76283856 -9.14581562 78.94340174 -9.07856178 78.09913349 C-8.94716215 76.45008774 -8.81572117 74.80104528 -8.68423843 73.15200615 C-8.48910982 70.7018104 -8.29472508 68.2515567 -8.10055542 65.80128479 C-7.10759488 53.27912435 -6.09819397 40.75868254 -4.99557495 28.24560547 C-4.83258291 26.38182076 -4.67314679 24.51772148 -4.5173645 22.65332031 C-4.30704048 20.14168781 -4.08509761 17.63138194 -3.859375 15.12109375 C-3.80126144 14.39881088 -3.74314789 13.67652802 -3.68327332 12.93235779 C-3.52746078 11.27986748 -3.27428704 9.63699981 -3 8 C-2.34 7.67 -1.68 7.34 -1 7 C-1.309375 5.824375 -1.309375 5.824375 -1.625 4.625 C-1.74875 3.75875 -1.8725 2.8925 -2 2 C-1.34 1.34 -0.68 0.68 0 0 Z " fill="#F0A0D8" transform="translate(1343,2740)"/>
<path d="M0 0 C0.91652344 0.01160156 1.83304688 0.02320313 2.77734375 0.03515625 C3.69644531 0.04417969 4.61554688 0.05320313 5.5625 0.0625 C6.27277344 0.07410156 6.98304687 0.08570313 7.71484375 0.09765625 C4.65220071 4.31913719 1.50772991 8.36812928 -1.93017578 12.29223633 C-27.31938027 41.43721323 -45.30957716 76.86486106 -55.28515625 114.09765625 C-55.54941406 114.96777344 -55.81367187 115.83789062 -56.0859375 116.734375 C-58.75075205 125.6580873 -60.05654781 134.88213755 -61.28515625 144.09765625 C-61.38231934 144.80647949 -61.47948242 145.51530273 -61.57958984 146.24560547 C-62.24713296 151.85953361 -62.39880696 157.45123142 -62.49609375 163.09765625 C-62.51768051 164.30970985 -62.51768051 164.30970985 -62.53970337 165.54624939 C-62.59728513 168.92678039 -62.65210945 172.30713231 -62.68652344 175.68798828 C-62.71397655 178.17912141 -62.75976395 180.66936308 -62.80859375 183.16015625 C-62.81184662 183.92779297 -62.81509949 184.69542969 -62.81845093 185.48632812 C-62.86865234 187.6328125 -62.86865234 187.6328125 -63.28515625 191.09765625 C-66.50729382 193.24574796 -67.56291026 193.39151778 -71.28515625 193.09765625 C-74.39042231 189.99239019 -72.53422114 178.20941967 -72.53619385 173.62258911 C-72.48034335 143.22423529 -37.3343649 1.59548568 0 0 Z " fill="#F1A1DA" transform="translate(1545.28515625,-0.09765625)"/>
<path d="M0 0 C1.66611905 -0.042721 3.33382885 -0.04063832 5 0 C6.8233227 1.8233227 6.12267648 4.35569479 6.12908131 6.7824741 C6.12471205 8.03877209 6.12471205 8.03877209 6.12025452 9.32044983 C6.12110894 10.20335156 6.12196337 11.0862533 6.12284368 11.99590963 C6.1245012 14.97784335 6.11897269 17.95972179 6.11352539 20.94165039 C6.11324355 23.06984964 6.11340119 25.19804898 6.1139679 27.32624817 C6.114256 33.12353317 6.10835723 38.92079768 6.10139394 44.7180779 C6.0951625 50.7692805 6.09455677 56.82048352 6.09336853 62.87168884 C6.09025459 74.33935031 6.08204037 85.80700229 6.07201904 97.27465957 C6.06085983 110.32642834 6.05534794 123.37819756 6.05032361 136.42996991 C6.0398578 163.28665187 6.02225716 190.1433254 6 217 C3.36 217 0.72 217 -2 217 C-2.04669196 189.44499458 -2.08197509 161.88999507 -2.10362434 134.33495808 C-2.11394302 121.54108166 -2.12801467 108.7472298 -2.15087891 95.95336914 C-2.17079466 84.80405559 -2.18371213 73.65475982 -2.18817699 62.50542897 C-2.19078744 56.60032557 -2.19693546 50.69527305 -2.21146011 44.79018593 C-2.22501533 39.23431977 -2.2292268 33.67852555 -2.22621536 28.12264442 C-2.22676645 26.08163055 -2.23075612 24.04061431 -2.23841095 21.99961472 C-2.24833988 19.21619174 -2.24597632 16.43304153 -2.24050903 13.64961243 C-2.24633472 12.8392956 -2.2521604 12.02897876 -2.25816262 11.19410688 C-2.23596678 7.02239967 -1.88533862 3.75050796 0 0 Z " fill="#F66D46" transform="translate(1399,2771)"/>
<path d="M0 0 C0.33 0 0.66 0 1 0 C1.33 47.19 1.66 94.38 2 143 C2.33 142.67 2.66 142.34 3 142 C4.65 142 6.3 142 8 142 C8.33 100.42 8.66 58.84 9 16 C9.33 16 9.66 16 10 16 C10.04669084 32.89807318 10.08197451 49.79612626 10.10362434 66.69424915 C10.11394327 74.5400845 10.12801536 82.38587981 10.15087891 90.23168945 C10.17079394 97.06894335 10.18371195 103.90616825 10.18817699 110.74345034 C10.19078758 114.36478336 10.19693633 117.9860334 10.21146011 121.60733986 C10.22753031 125.64687427 10.2279809 129.68626382 10.22705078 133.72583008 C10.23424133 134.93064026 10.24143188 136.13545044 10.24884033 137.37677002 C10.246091 138.47473404 10.24334167 139.57269806 10.24050903 140.70393372 C10.24235262 141.65983304 10.24419621 142.61573236 10.24609566 143.60059834 C10 146 10 146 8 149 C5.5625 149.4375 5.5625 149.4375 3 149 C-0.14372839 145.82627802 -0.37210615 143.38490459 -0.36076355 139.01422119 C-0.36488754 137.7886702 -0.36901154 136.5631192 -0.3732605 135.3004303 C-0.36264383 133.94540185 -0.35173941 132.59037562 -0.34057617 131.23535156 C-0.33972981 129.80620847 -0.34020522 128.37706408 -0.34190369 126.94792175 C-0.34276471 123.07006884 -0.32512178 119.1924941 -0.30418181 115.31470585 C-0.28543279 111.26147432 -0.28366598 107.20823647 -0.28010559 103.15496826 C-0.2707799 95.48039983 -0.24615905 87.80595955 -0.21605712 80.13144755 C-0.1825294 71.39393332 -0.1660312 62.65641297 -0.15097082 53.91885042 C-0.11960993 35.94582762 -0.06683927 17.97292411 0 0 Z " fill="#421D13" transform="translate(1157,323)"/>
<path d="M0 0 C0.33 0 0.66 0 1 0 C1.04667496 24.72110209 1.08196672 49.4421976 1.10362434 74.16333485 C1.11394664 85.6412128 1.12802516 97.11906342 1.15087891 108.59692383 C1.17078363 118.59844041 1.1837095 128.5999372 1.18817699 138.60147303 C1.19078932 143.89953511 1.19694918 149.19754053 1.21146011 154.49558449 C1.22499796 159.47854507 1.22923036 164.46142547 1.22621536 169.44440269 C1.22676723 171.27662466 1.23076722 173.1088492 1.23841095 174.9410553 C1.24831283 177.43617043 1.2459864 179.93097997 1.24050903 182.42610168 C1.24633472 183.15664334 1.2521604 183.88718499 1.25816262 184.63986427 C1.23620329 188.32255717 1.10160506 189.8475924 -1 193 C-2.65 192.67 -4.3 192.34 -6 192 C-6.625 189.625 -6.625 189.625 -7 187 C-6.01 186.01 -6.01 186.01 -5 185 C-3.35 185.33 -1.7 185.66 0 186 C0 124.62 0 63.24 0 0 Z " fill="#0D0D36" transform="translate(1255,278)"/>
<path d="M0 0 C2.97 0 5.94 0 9 0 C9 46.53 9 93.06 9 141 C8.67 141 8.34 141 8 141 C7.67 97.77 7.34 54.54 7 10 C5.35 10.33 3.7 10.66 2 11 C0 9 0 9 -0.1953125 6.8359375 C-0.13020833 4.55729167 -0.06510417 2.27864583 0 0 Z " fill="#1B1B70" transform="translate(1599,2570)"/>
<path d="M0 0 C0.33 0 0.66 0 1 0 C1.07587748 7.08407758 1.12852671 14.16805094 1.16479492 21.25244141 C1.17990945 23.66393957 1.20040153 26.07541014 1.22631836 28.48681641 C1.26258425 31.94700928 1.27969956 35.40683971 1.29296875 38.8671875 C1.30845261 39.95055389 1.32393646 41.03392029 1.33988953 42.15011597 C1.34022942 43.65144577 1.34022942 43.65144577 1.34057617 45.18310547 C1.34723801 46.06690887 1.35389984 46.95071228 1.36076355 47.86129761 C1.24171158 48.5670694 1.12265961 49.27284119 1 50 C-2 52 -2 52 -4.0625 51.875 C-6 51 -6 51 -7.4375 49.25 C-8 47 -8 47 -6.625 44.25 C-6.08875 43.5075 -5.5525 42.765 -5 42 C-3.68 42.33 -2.36 42.66 -1 43 C-0.67 28.81 -0.34 14.62 0 0 Z " fill="#AD5C61" transform="translate(1607,335)"/>
<path d="M0 0 C0.33 0 0.66 0 1 0 C1 9.57 1 19.14 1 29 C2.98 29 4.96 29 7 29 C7.33 21.74 7.66 14.48 8 7 C8.33 7 8.66 7 9 7 C9.08674429 11.45821166 9.14030513 15.91620804 9.1875 20.375 C9.21263672 21.64601562 9.23777344 22.91703125 9.26367188 24.2265625 C9.27817383 26.04414063 9.27817383 26.04414063 9.29296875 27.8984375 C9.31653442 29.57945557 9.31653442 29.57945557 9.34057617 31.29443359 C9.22818604 32.18727051 9.1157959 33.08010742 9 34 C5.77786243 36.14809171 4.72224599 36.29386153 1 36 C0 35 0 35 -0.11352539 31.67358398 C-0.11336629 30.19774444 -0.10767314 28.72189931 -0.09765625 27.24609375 C-0.09553383 26.08292381 -0.09553383 26.08292381 -0.09336853 24.89625549 C-0.08775345 22.40996506 -0.07519846 19.9237634 -0.0625 17.4375 C-0.05748694 15.75586067 -0.0529237 14.07421994 -0.04882812 12.39257812 C-0.03777913 8.26168434 -0.02050445 4.13085724 0 0 Z " fill="#5B7D7C" transform="translate(1473,157)"/>
<path d="M0 0 C2.625 0.375 2.625 0.375 5 1 C5.86556277 5.11142314 6 8.80838094 6 13 C5.67 11.68 5.34 10.36 5 9 C2.69 9 0.38 9 -2 9 C-2.33 9.99 -2.66 10.98 -3 12 C-3 10.68 -3 9.36 -3 8 C-2.34 7.67 -1.68 7.34 -1 7 C-1.309375 5.824375 -1.309375 5.824375 -1.625 4.625 C-1.74875 3.75875 -1.8725 2.8925 -2 2 C-1.34 1.34 -0.68 0.68 0 0 Z " fill="#CF6350" transform="translate(1343,2740)"/>
<path d="M0 0 C4.55555556 0.55555556 4.55555556 0.55555556 6 2 C5.71269945 4.33944736 5.38063221 6.6739143 5 9 C3.35 9.33 1.7 9.66 0 10 C-2.14915785 6.77626323 -2.38286803 5.73296326 -2 2 C-1.34 1.34 -0.68 0.68 0 0 Z " fill="#947CDC" transform="translate(1475,2728)"/>
<path d="M0 0 C2.5625 0.1875 2.5625 0.1875 4.5625 2.1875 C4.00694444 6.74305556 4.00694444 6.74305556 2.5625 8.1875 C0.89632885 8.22813832 -0.77138095 8.230221 -2.4375 8.1875 C-2.81813221 5.8614143 -3.15019945 3.52694736 -3.4375 1.1875 C-2.4375 0.1875 -2.4375 0.1875 0 0 Z " fill="#8E7ED7" transform="translate(1345.4375,344.8125)"/>
<path d="M0 0 C2.375 -0.125 2.375 -0.125 5 0 C5.66 0.66 6.32 1.32 7 2 C6.625 4.625 6.625 4.625 6 7 C3.625 7.625 3.625 7.625 1 8 C0.34 7.34 -0.32 6.68 -1 6 C-0.625 2.875 -0.625 2.875 0 0 Z " fill="#DE623F" transform="translate(1342,2703)"/>
<path d="M0 0 C2.625 0.375 2.625 0.375 5 1 C5.625 3.375 5.625 3.375 6 6 C4 8 4 8 1.375 8.125 C0.59125 8.08375 -0.1925 8.0425 -1 8 C-1.625 5.125 -1.625 5.125 -2 2 C-1.34 1.34 -0.68 0.68 0 0 Z " fill="#DD623F" transform="translate(1601,2523)"/>
<path d="M0 0 C3.125 0.375 3.125 0.375 6 1 C6.125 3.375 6.125 3.375 6 6 C5.34 6.66 4.68 7.32 4 8 C1.375 7.625 1.375 7.625 -1 7 C-1.625 4.625 -1.625 4.625 -2 2 C-1.34 1.34 -0.68 0.68 0 0 Z " fill="#DE623F" transform="translate(1160,2410)"/>
<path d="M0 0 C2.625 0.375 2.625 0.375 5 1 C5.625 3.375 5.625 3.375 6 6 C5.34 6.66 4.68 7.32 4 8 C1.375 7.625 1.375 7.625 -1 7 C-1.625 4.625 -1.625 4.625 -2 2 C-1.34 1.34 -0.68 0.68 0 0 Z " fill="#E56855" transform="translate(1601,2573)"/>
<path d="M0 0 C2.625 0.375 2.625 0.375 5 1 C5.625 3.375 5.625 3.375 6 6 C5.34 6.66 4.68 7.32 4 8 C1.375 7.625 1.375 7.625 -1 7 C-1.625 4.625 -1.625 4.625 -2 2 C-1.34 1.34 -0.68 0.68 0 0 Z " fill="#D9E554" transform="translate(1275,2560)"/>
<path d="M0 0 C2.625 0.375 2.625 0.375 5 1 C5.625 3.375 5.625 3.375 6 6 C5.34 6.66 4.68 7.32 4 8 C1.375 7.625 1.375 7.625 -1 7 C-1.625 4.625 -1.625 4.625 -2 2 C-1.34 1.34 -0.68 0.68 0 0 Z " fill="#D8E354" transform="translate(1275,2531)"/>
<path d="M0 0 C2.625 0.375 2.625 0.375 5 1 C5.625 3.375 5.625 3.375 6 6 C5.34 6.66 4.68 7.32 4 8 C1.375 7.625 1.375 7.625 -1 7 C-1.625 4.625 -1.625 4.625 -2 2 C-1.34 1.34 -0.68 0.68 0 0 Z " fill="#EB6D52" transform="translate(1160,2503)"/>
<path d="M0 0 C2.625 0.375 2.625 0.375 5 1 C5.625 3.375 5.625 3.375 6 6 C5.34 6.66 4.68 7.32 4 8 C1.375 7.625 1.375 7.625 -1 7 C-1.625 4.625 -1.625 4.625 -2 2 C-1.34 1.34 -0.68 0.68 0 0 Z " fill="#DE9DCE" transform="translate(1533,321)"/>
<path d="M0 0 C2.625 0.375 2.625 0.375 5 1 C5.625 3.375 5.625 3.375 6 6 C5.34 6.66 4.68 7.32 4 8 C1.375 7.625 1.375 7.625 -1 7 C-1.625 4.625 -1.625 4.625 -2 2 C-1.34 1.34 -0.68 0.68 0 0 Z " fill="#078E5E" transform="translate(1475,254)"/>
<path d="M0 0 C2.375 -0.125 2.375 -0.125 5 0 C5.66 0.66 6.32 1.32 7 2 C6.625 4.625 6.625 4.625 6 7 C4.35 7.33 2.7 7.66 1 8 C-1 5 -1 5 -0.625 2.3125 C-0.41875 1.549375 -0.2125 0.78625 0 0 Z " fill="#E26440" transform="translate(1600,2561)"/>
<path d="M0 0 C2.625 0.375 2.625 0.375 5 1 C5.625 3.375 5.625 3.375 6 6 C5.34 6.66 4.68 7.32 4 8 C1.375 7.625 1.375 7.625 -1 7 C-1.625 4.625 -1.625 4.625 -2 2 C-1.34 1.34 -0.68 0.68 0 0 Z " fill="#07905F" transform="translate(1250,488)"/>
<path d="M0 0 C2.625 0.375 2.625 0.375 5 1 C5.625 3.375 5.625 3.375 6 6 C5.34 6.66 4.68 7.32 4 8 C1.375 7.625 1.375 7.625 -1 7 C-1.625 4.625 -1.625 4.625 -2 2 C-1.34 1.34 -0.68 0.68 0 0 Z " fill="#F2A8D2" transform="translate(1399,259)"/>
<path d="M0 0 C1.99954746 -0.04254356 4.00041636 -0.04080783 6 0 C7 1 7 1 7.125 3.5 C7 6 7 6 6 7 C3.5625 7.1875 3.5625 7.1875 1 7 C0.34 6.34 -0.32 5.68 -1 5 C-0.625 2.375 -0.625 2.375 0 0 Z " fill="#078F5F" transform="translate(1532,2576)"/>
<path d="M0 0 C2.5 0.125 2.5 0.125 3.5 1.125 C3.6875 3.5625 3.6875 3.5625 3.5 6.125 C2.84 6.785 2.18 7.445 1.5 8.125 C-1.125 7.75 -1.125 7.75 -3.5 7.125 C-3.54254356 5.12545254 -3.54080783 3.12458364 -3.5 1.125 C-2.5 0.125 -2.5 0.125 0 0 Z " fill="#E26440" transform="translate(1162.5,2477.875)"/>
<path d="M0 0 C1.99954746 -0.04254356 4.00041636 -0.04080783 6 0 C7 1 7 1 7.125 3.5 C7 6 7 6 6 7 C3.5625 7.1875 3.5625 7.1875 1 7 C0.34 6.34 -0.32 5.68 -1 5 C-0.625 2.375 -0.625 2.375 0 0 Z " fill="#E0F25B" transform="translate(1274,2692)"/>
<path d="M0 0 C2.4375 0.1875 2.4375 0.1875 3.4375 1.1875 C3.5625 3.6875 3.5625 3.6875 3.4375 6.1875 C2.4375 7.1875 2.4375 7.1875 -0.625 7.25 C-1.594375 7.229375 -2.56375 7.20875 -3.5625 7.1875 C-4.1875 4.8125 -4.1875 4.8125 -4.5625 2.1875 C-2.5625 0.1875 -2.5625 0.1875 0 0 Z " fill="#E0EC57" transform="translate(1277.5625,2625.8125)"/>
<path d="M0 0 C2.625 0.375 2.625 0.375 5 1 C5.625 2.8125 5.625 2.8125 6 5 C5.01 6.485 5.01 6.485 4 8 C2.35 7.67 0.7 7.34 -1 7 C-1.625 4.625 -1.625 4.625 -2 2 C-1.34 1.34 -0.68 0.68 0 0 Z " fill="#089366" transform="translate(1250,463)"/>
<path d="M0 0 C2.5 0.125 2.5 0.125 3.5 1.125 C3.625 3.625 3.625 3.625 3.5 6.125 C2.5 7.125 2.5 7.125 0.0625 7.3125 C-2.5 7.125 -2.5 7.125 -4.5 5.125 C-3.7519084 0.18759542 -3.7519084 0.18759542 0 0 Z " fill="#E2EE58" transform="translate(1277.5,2658.875)"/>
<path d="M0 0 C1.67542976 0.28604898 3.34385343 0.61781233 5 1 C5.38218767 2.65614657 5.71395102 4.32457024 6 6 C5.67 6.33 5.34 6.66 5 7 C2.66055264 6.71269945 0.3260857 6.38063221 -2 6 C-1.125 1.125 -1.125 1.125 0 0 Z " fill="#E2EE57" transform="translate(1275,2593)"/>
<path d="M0 0 C2.4375 0.1875 2.4375 0.1875 3.4375 1.1875 C3.5625 3.6875 3.5625 3.6875 3.4375 6.1875 C2.4375 7.1875 2.4375 7.1875 -0.125 7.25 C-1.3315625 7.2190625 -1.3315625 7.2190625 -2.5625 7.1875 C-3.2225 5.5375 -3.8825 3.8875 -4.5625 2.1875 C-2.5625 0.1875 -2.5625 0.1875 0 0 Z " fill="#1EABAA" transform="translate(1162.5625,464.8125)"/>
<path d="M0 0 C2.625 0.375 2.625 0.375 5 1 C5.625 2.875 5.625 2.875 6 5 C4 7 4 7 1.375 7.125 C0.59125 7.08375 -0.1925 7.0425 -1 7 C-1.625 4.625 -1.625 4.625 -2 2 C-1.34 1.34 -0.68 0.68 0 0 Z " fill="#079663" transform="translate(1475,220)"/>
<path d="M0 0 C2.5 0.125 2.5 0.125 3.5 1.125 C3.625 3.625 3.625 3.625 3.5 6.125 C2.5 7.125 2.5 7.125 0 7.25 C-2.5 7.125 -2.5 7.125 -3.5 6.125 C-3.625 3.625 -3.625 3.625 -3.5 1.125 C-2.5 0.125 -2.5 0.125 0 0 Z " fill="#F1A0D8" transform="translate(1401.5,2770.875)"/>
<path d="M0 0 C2.5 0.125 2.5 0.125 3.5 1.125 C3.625 3.625 3.625 3.625 3.5 6.125 C2.5 7.125 2.5 7.125 0 7.25 C-2.5 7.125 -2.5 7.125 -3.5 6.125 C-3.625 3.625 -3.625 3.625 -3.5 1.125 C-2.5 0.125 -2.5 0.125 0 0 Z " fill="#17ABAB" transform="translate(1162.5,544.875)"/>
<path d="M0 0 C2.5 0.125 2.5 0.125 3.5 1.125 C3.625 3.625 3.625 3.625 3.5 6.125 C2.5 7.125 2.5 7.125 0 7.25 C-2.5 7.125 -2.5 7.125 -3.5 6.125 C-3.625 3.625 -3.625 3.625 -3.5 1.125 C-2.5 0.125 -2.5 0.125 0 0 Z " fill="#17ABAB" transform="translate(1162.5,528.875)"/>
<path d="M0 0 C2.5 0.125 2.5 0.125 3.5 1.125 C3.625 3.625 3.625 3.625 3.5 6.125 C2.5 7.125 2.5 7.125 0 7.25 C-2.5 7.125 -2.5 7.125 -3.5 6.125 C-3.625 3.625 -3.625 3.625 -3.5 1.125 C-2.5 0.125 -2.5 0.125 0 0 Z " fill="#17ABAB" transform="translate(1162.5,496.875)"/>
<path d="M0 0 C2.64 0 5.28 0 8 0 C8 1.65 8 3.3 8 5 C7.05125 4.814375 6.1025 4.62875 5.125 4.4375 C2.10131207 3.71313368 2.10131207 3.71313368 0 5 C0 3.35 0 1.7 0 0 Z " fill="#3836DA" transform="translate(1599,2570)"/>
</svg>
