<?xml version="1.0" encoding="UTF-8"?>
<svg version="1.1" xmlns="http://www.w3.org/2000/svg" width="250" height="250">
<path d="M0 0 C82.5 0 165 0 250 0 C250 82.5 250 165 250 250 C167.5 250 85 250 0 250 C0 167.5 0 85 0 0 Z " fill="#000000" transform="translate(0,0)"/>
<path d="M0 0 C3.96 1.98 7.92 3.96 12 6 C11.84144531 7.10085937 11.68289062 8.20171875 11.51953125 9.3359375 C8.97756371 29.87936965 11.20487294 48.85396919 24.1015625 65.75390625 C32.61723182 75.60861191 41.87688728 82.24264159 54 87 C54.84820312 87.34160156 55.69640625 87.68320313 56.5703125 88.03515625 C71.81865298 93.17370359 89.9993502 90.70238186 104.52734375 84.4921875 C121.56260647 75.94473946 132.95701871 61.8623104 139 44 C140.80779883 37.79683729 141.28727162 31.93789535 141.1875 25.5 C141.18685547 24.70980469 141.18621094 23.91960937 141.18554688 23.10546875 C141.14554689 17.67435966 140.67358608 12.38868868 140 7 C141.40552299 5.96387729 142.82491694 4.94655075 144.25 3.9375 C145.03890625 3.36902344 145.8278125 2.80054687 146.640625 2.21484375 C149 1 149 1 151.22265625 1.15234375 C153 2 153 2 154.1875 4.625 C157.21596396 17.20477339 157.24630535 31.46254486 154 44 C153.75507813 45.010625 153.51015625 46.02125 153.2578125 47.0625 C147.97185913 66.52229294 134.73296551 84.17720577 117.203125 94.26171875 C97.63787952 104.85075985 74.77836388 108.39361244 53.19921875 102.3828125 C31.48931211 95.62145378 14.71805937 80.89511021 4 61 C-5.13509255 41.8541713 -6.00753984 21.39340057 -1 1 C-0.67 0.67 -0.34 0.34 0 0 Z " fill="#F9F9F9" transform="translate(49,100)"/>
<path d="M0 0 C10.70334022 8.36691787 18.43806525 18.09958377 23 31 C23.16015625 33.890625 23.16015625 33.890625 23 36 C21.35 36.66 19.7 37.32 18 38 C17.97421875 39.14855469 17.9484375 40.29710937 17.921875 41.48046875 C17.56674582 52.36952904 16.54021167 62.37637817 11.3046875 72.171875 C9.61506892 74.98611971 9.61506892 74.98611971 11 78 C12.485 78.99 12.485 78.99 14 80 C10.16671017 91.26275879 -1.02599129 96.91196044 -11.00390625 102.02734375 C-20.71382264 106.55563422 -30.54460382 106.23091673 -41 106 C-41 103.36 -41 100.72 -41 98 C-42.8253125 97.7215625 -42.8253125 97.7215625 -44.6875 97.4375 C-57.6360369 94.55322875 -68.12541116 86.55567604 -75.35546875 75.71875 C-79.37521618 69.07327681 -82.8796486 62.91683736 -82 55 C-79.36 54.67 -76.72 54.34 -74 54 C-73.70867187 54.845625 -73.41734375 55.69125 -73.1171875 56.5625 C-68.61491664 69.02161433 -61.78115794 79.58314608 -49.375 85.4375 C-45.56229967 86.92458415 -42.10950067 87.72603329 -38 88 C-36.58074219 88.11214844 -36.58074219 88.11214844 -35.1328125 88.2265625 C-24.08418724 88.72997708 -15.0293506 85.98738277 -6.5625 78.75 C2.83938827 69.50073979 6.98951112 60.22289753 7.4375 47 C7.12521047 35.54521992 2.76818191 26.3938073 -5 18 C-14.67373085 9.96787196 -25.1732374 7.32185762 -37.58203125 7.66015625 C-46.90196253 8.5868237 -53.39999704 12.58792103 -60.58984375 18.390625 C-63 20 -63 20 -67 20 C-69.578125 18.03125 -69.578125 18.03125 -72.25 15.5 C-73.14203125 14.6646875 -74.0340625 13.829375 -74.953125 12.96875 C-75.62859375 12.3190625 -76.3040625 11.669375 -77 11 C-58.83183584 -12.42736958 -24.18911431 -16.85000223 0 0 Z " fill="#F9F9F9" transform="translate(158,77)"/>
<path d="M0 0 C9.72268054 7.5439286 17.12622042 16.34234259 22.9765625 27.1015625 C23.32807373 27.74496582 23.67958496 28.38836914 24.04174805 29.05126953 C24.8775585 30.67201315 25.59347999 32.35337155 26.2890625 34.0390625 C25.07742402 37.67397793 24.18135188 37.99152465 20.9140625 39.7890625 C20.12257812 40.23765625 19.33109375 40.68625 18.515625 41.1484375 C16.2890625 42.0390625 16.2890625 42.0390625 13.2890625 41.0390625 C11.9296875 38.6328125 11.9296875 38.6328125 10.5390625 35.5390625 C7.7375501 29.70776632 4.54425393 24.89542887 0.2890625 20.0390625 C-0.24332031 19.42417969 -0.77570313 18.80929688 -1.32421875 18.17578125 C-12.05941503 6.62071318 -28.23159599 -0.61799402 -43.9453125 -1.296875 C-54.56748446 -1.46946146 -63.84171644 -1.25068415 -73.7109375 3.0390625 C-74.5978125 3.41289063 -75.4846875 3.78671875 -76.3984375 4.171875 C-92.93298248 11.78381492 -104.07111168 25.33639507 -110.7109375 42.0390625 C-114.00774715 41.38121287 -116.55211672 40.14485677 -119.4609375 38.4765625 C-120.26015625 38.02152344 -121.059375 37.56648438 -121.8828125 37.09765625 C-122.78773437 36.57365234 -122.78773437 36.57365234 -123.7109375 36.0390625 C-117.6749871 16.23176894 -102.40768375 1.7296427 -84.7109375 -7.9609375 C-57.04647822 -21.66887239 -24.88065961 -17.99724946 0 0 Z " fill="#F8F8F8" transform="translate(173.7109375,60.9609375)"/>
<path d="M0 0 C6.41261415 3.67628694 11.36203812 8.89535225 13.625 16 C14.7041051 24.66691779 13.78724352 31.84030547 8.625 39 C4.18230805 43.8766293 -1.08678457 47.57657551 -7.7421875 48.43359375 C-16.16736975 48.44297591 -22.07736269 48.08884522 -28.3046875 42.1640625 C-34.92147885 34.99815984 -36.97734501 29.16086357 -36.7109375 19.40625 C-35.8945621 11.1285832 -31.80588018 7.00226409 -25.69140625 1.6640625 C-18.24058186 -3.68846901 -8.23288148 -3.74451118 0 0 Z " fill="#FCFCFC" transform="translate(136.375,102)"/>
</svg>
